<svg version="1.1" id="Layer_1" xmlns="http://www.w3.org/2000/svg" xmlns:xlink="http://www.w3.org/1999/xlink" x="0px" y="0px"
	 width="100%" viewBox="0 0 500 500" enable-background="new 0 0 500 500" xml:space="preserve">
<path fill="#000000" opacity="1.000000" stroke="none" 
	d="
M280.000000,501.000000 
	C186.666687,501.000000 93.833374,501.000000 1.000050,501.000000 
	C1.000033,334.333405 1.000033,167.666794 1.000017,1.000139 
	C167.666565,1.000093 334.333130,1.000093 500.999756,1.000046 
	C500.999847,167.666519 500.999847,334.333038 500.999939,500.999786 
	C427.500000,501.000000 354.000000,501.000000 280.000000,501.000000 
M392.005646,363.974609 
	C392.005646,363.974609 392.083435,363.923401 392.015442,363.000336 
	C391.961273,355.680420 391.907135,348.360474 392.011780,340.340668 
	C393.339996,339.178162 394.668213,338.015656 396.928955,336.979950 
	C401.705872,336.984436 406.486725,337.109344 411.258301,336.952087 
	C414.576965,336.842712 417.882874,336.345734 421.917908,335.609222 
	C421.364532,332.738281 421.066498,329.781494 420.143188,327.034882 
	C419.721985,325.782074 418.066589,324.944214 416.992859,323.997986 
	C416.992859,323.997986 417.072784,323.976349 416.661835,323.195221 
	C408.104736,323.179382 399.547638,323.163544 390.269897,323.322449 
	C384.956482,324.448425 380.024017,326.084930 379.625580,332.702057 
	C379.091461,341.571014 378.139709,350.465363 378.430786,359.313812 
	C378.595367,364.317017 379.521240,369.912415 385.078003,373.655151 
	C388.702850,375.104614 392.240051,377.442841 395.971588,377.810944 
	C402.870056,378.491364 409.898590,377.751282 416.838104,378.174408 
	C419.155548,378.315704 421.628418,379.525360 421.874603,376.333069 
	C422.103180,373.369537 423.834747,368.855927 418.069550,367.960175 
	C416.531738,366.976257 415.032196,365.220764 413.449432,365.142212 
	C406.647949,364.804596 399.822021,364.959869 392.936584,364.413422 
	C392.643280,364.241211 392.350006,364.068970 392.005646,363.974609 
M181.960068,337.953186 
	C181.966202,339.266205 181.972336,340.579224 181.250229,342.219299 
	C179.482483,342.813141 177.724670,343.882874 175.945297,343.920044 
	C167.354767,344.099365 158.758423,344.000793 150.499252,344.000793 
	C149.972473,352.194489 148.956604,359.774292 149.344650,367.281555 
	C149.452408,369.365662 147.511810,374.552460 153.724319,375.225281 
	C153.879715,378.817627 156.834381,378.893463 159.099304,378.829468 
	C160.443726,378.791504 161.740082,377.052704 163.830200,375.659027 
	C163.886810,372.701385 163.983353,369.743866 163.992249,366.786072 
	C164.015366,359.090576 164.000961,359.096039 171.528687,357.809296 
	C171.744034,357.772461 171.888702,357.322144 172.701324,357.205170 
	C173.459091,357.515594 174.216858,357.826019 174.981766,358.868530 
	C175.976166,360.869659 176.768631,363.007477 178.009842,364.841583 
	C180.150085,368.004181 182.569427,370.977875 185.159439,374.733826 
	C188.461166,378.713623 194.776657,379.576172 198.082321,376.290253 
	C196.423889,373.856293 194.738693,371.383026 193.040237,368.978271 
	C193.040237,368.978271 193.109177,368.967651 193.015366,368.236908 
	C191.696350,366.128876 190.377335,364.020813 189.035324,361.980164 
	C189.035324,361.980164 189.104568,361.963623 189.017075,361.232819 
	C188.462570,359.929321 187.908066,358.625854 187.300156,357.196808 
	C193.049362,356.965912 195.332932,352.661835 195.687592,348.210144 
	C196.222885,341.491089 197.843719,334.053680 191.025024,328.979797 
	C191.025024,328.979797 191.093231,328.967499 190.950760,328.404633 
	C190.614960,328.320099 190.279175,328.235565 189.303696,327.791412 
	C186.895935,326.507538 184.488159,325.223694 181.649200,323.174408 
	C172.076630,323.116943 162.503555,323.003723 152.932297,323.090424 
	C152.001190,323.098877 151.081253,324.341156 149.855255,325.641541 
	C149.944183,327.650543 150.033096,329.659515 150.014267,332.462555 
	C151.392548,333.629852 152.770828,334.797150 154.347061,336.826660 
	C163.556152,336.938660 172.765228,337.050629 181.960068,337.953186 
M301.885712,337.005463 
	C306.970062,336.681946 312.054382,336.358459 317.869476,335.639191 
	C318.611084,331.366943 318.327087,327.461304 313.905609,324.477234 
	C313.618530,324.293152 313.331482,324.109070 312.579926,323.194397 
	C298.702881,323.175232 284.825806,323.156067 270.223511,323.519836 
	C270.209320,326.352905 270.195129,329.185974 270.425873,332.740967 
	C271.976410,333.978363 273.526947,335.215759 275.821106,337.046600 
	C278.784576,337.046600 282.843079,337.046600 286.987030,337.974915 
	C286.991394,348.558746 286.952148,359.143005 287.053070,369.725891 
	C287.066284,371.111084 287.798706,372.489441 288.890198,373.991516 
	C289.590607,374.032532 290.291046,374.073547 290.978333,374.977570 
	C291.398163,375.984985 291.819824,377.859253 292.237488,377.858337 
	C294.836945,377.852753 297.435486,377.427155 300.805023,376.695160 
	C300.921753,363.444489 301.038513,350.193848 300.954498,336.936615 
	C300.954498,336.936615 300.942749,337.137146 301.885712,337.005463 
M122.948990,337.450653 
	C122.948990,337.450653 122.946465,337.908966 122.307335,338.178986 
	C116.930267,342.101715 111.660820,346.183350 106.153130,349.913177 
	C95.563232,357.084686 94.288536,359.652069 97.069061,370.865692 
	C97.368980,372.075226 98.901459,372.979095 100.149834,374.748627 
	C101.541847,375.833710 102.883682,377.780884 104.333931,377.865326 
	C114.514465,378.457916 124.723396,378.546722 134.909988,379.059814 
	C138.692551,379.250336 141.313782,378.053833 141.875000,374.311981 
	C142.379410,370.948761 140.203522,368.962067 137.013321,367.088440 
	C135.747040,366.392761 134.523666,365.200073 133.207138,365.086365 
	C127.097366,364.558868 120.961761,364.330505 115.153259,363.353485 
	C122.301964,358.222595 129.562195,353.238647 136.569305,347.921204 
	C144.210846,342.122253 144.301407,332.061401 136.870712,325.351349 
	C136.328278,324.905609 135.785843,324.459869 134.780426,323.229889 
	C122.236465,323.229889 109.692513,323.229889 97.163528,323.229889 
	C97.163528,325.682831 97.163528,327.824524 96.992371,330.509796 
	C97.033463,330.883728 97.074554,331.257690 97.011467,332.429382 
	C98.388878,333.602325 99.766281,334.775299 101.332680,336.816284 
	C108.228310,336.828918 115.123932,336.841583 122.393562,337.018921 
	C122.393562,337.018921 122.802216,337.016449 122.948990,337.450653 
M332.319550,336.809845 
	C343.577332,336.871033 354.835083,336.948792 366.092865,336.952362 
	C366.768860,336.952576 367.445007,336.361023 368.825867,335.736847 
	C371.117188,331.072968 370.044708,327.709900 366.011139,326.123138 
	C365.627014,325.440948 365.242859,324.758728 364.616974,323.230408 
	C352.412750,323.202057 340.208527,323.173706 327.262024,323.487762 
	C327.231720,326.286682 327.201385,329.085632 327.221161,332.609619 
	C328.772308,333.754150 330.323456,334.898651 332.319550,336.809845 
M88.001106,329.376068 
	C87.959877,328.932281 87.918640,328.488464 87.969772,327.458557 
	C87.634895,327.346527 87.300011,327.234467 86.375458,326.986359 
	C85.972282,326.972656 85.569099,326.958954 84.980675,326.422485 
	C84.671730,326.249115 84.362778,326.075745 83.984718,325.059448 
	C81.025078,324.758820 78.065437,324.458221 74.216934,324.290771 
	C74.143234,339.927765 74.056725,355.564789 74.039581,371.201843 
	C74.038849,371.872864 74.678627,372.544586 75.205856,373.807343 
	C76.099670,374.224457 76.993484,374.641571 77.999855,375.818665 
	C80.088646,380.228638 83.473221,379.555023 87.776558,377.767395 
	C87.851562,373.831665 87.994530,369.895874 87.988876,365.960266 
	C87.971649,353.983459 87.897072,342.006714 88.001106,329.376068 
M334.176697,373.723053 
	C337.210205,376.693146 340.677979,378.241577 345.095245,378.069916 
	C351.729492,377.812134 358.381226,378.021790 365.025299,377.989716 
	C367.254608,377.978943 370.147125,378.674866 369.953674,374.957672 
	C369.784363,371.704346 371.498199,367.354736 366.073975,365.892151 
	C364.550995,364.929932 363.073975,363.230316 361.497101,363.131958 
	C354.321259,362.684387 347.117340,362.687378 340.006287,361.547913 
	C340.006287,360.126099 340.006287,358.704315 340.006287,357.005157 
	C345.163177,357.005157 349.777649,357.005157 354.392120,357.005157 
	C359.155457,357.005157 363.918793,357.005157 368.631958,357.005157 
	C369.023224,352.834900 369.023224,352.834900 364.929688,344.425751 
	C364.630890,344.256561 364.332062,344.087372 363.614868,343.152710 
	C353.540771,343.098145 343.466675,343.020630 333.392670,343.031616 
	C332.567535,343.032501 331.743073,343.636383 330.159668,343.997253 
	C324.131531,349.563538 327.227539,356.559601 327.636383,362.896027 
	C327.893219,366.876770 329.319061,371.237030 334.176697,373.723053 
M248.165970,374.735168 
	C250.345047,376.152130 252.360931,378.323029 254.735474,378.836975 
	C260.587067,380.103577 262.123016,378.100555 259.907227,372.626740 
	C255.349731,361.368103 250.836990,350.084625 245.926575,338.979065 
	C244.076157,334.794067 241.175552,331.073456 238.194260,326.728027 
	C232.723282,321.211578 226.233505,321.624084 223.611267,327.904236 
	C217.771866,341.889435 212.126785,355.956299 206.476364,370.019531 
	C205.210724,373.169586 206.073456,375.198395 209.994324,375.884216 
	C211.118423,376.921692 212.333954,378.908081 213.348663,378.810303 
	C215.910202,378.563538 218.952835,378.009003 220.731674,376.396332 
	C222.595856,374.706299 223.212418,371.640045 224.457947,368.997772 
	C228.078232,368.997772 231.754349,369.236786 235.373383,368.886200 
	C236.933304,368.735107 238.374985,367.363342 239.870377,366.546112 
	C237.935501,363.670959 236.000626,360.795776 233.851974,357.340942 
	C233.300110,356.562256 232.748245,355.783600 231.858475,354.322174 
	C231.266739,353.881104 230.102142,353.180786 230.167252,353.036926 
	C231.681808,349.690125 233.329681,346.403656 235.011841,343.861481 
	C236.693390,348.342712 238.206451,352.896606 240.098618,357.287079 
	C242.534683,362.939575 245.274597,368.461121 248.165970,374.735168 
M464.210510,374.767639 
	C465.138214,375.383453 466.002319,376.144379 467.006989,376.584503 
	C469.027100,377.469482 471.122742,378.715637 473.189545,378.720001 
	C474.126373,378.721985 475.865662,376.127625 475.885468,374.692383 
	C476.087006,360.091644 476.089142,345.485901 475.877045,330.885468 
	C475.857147,329.517426 473.989990,328.176239 472.691925,326.217529 
	C470.532471,321.051422 466.486145,325.331757 462.980499,323.773834 
	C462.980499,330.404419 462.980499,336.444092 462.980499,343.873535 
	C456.314331,343.873535 450.152191,343.873535 443.998810,342.962311 
	C443.998932,339.146027 444.052643,335.328705 443.980499,331.513794 
	C443.931519,328.923492 443.385468,326.612305 440.063171,326.098053 
	C439.225983,325.343353 438.449585,324.045105 437.539337,323.943268 
	C435.423737,323.706451 433.243530,324.046692 430.202332,324.281464 
	C430.131836,340.120850 430.045441,355.960205 430.044495,371.799591 
	C430.044464,372.489349 430.829498,373.179199 431.545380,374.042206 
	C431.545380,374.042206 431.884308,373.987091 432.143005,374.694641 
	C432.779022,375.303741 433.312805,376.198730 434.069794,376.469391 
	C436.539703,377.352448 439.125671,378.700592 441.602356,378.576782 
	C444.762634,378.418823 443.982452,375.331268 443.992279,373.148010 
	C444.016052,367.872528 444.000000,362.596893 444.000000,356.999023 
	C450.606537,356.999023 456.733124,356.999023 462.962616,357.928619 
	C463.287598,363.294556 463.612549,368.660492 464.210510,374.767639 
M34.019115,343.001495 
	C34.011955,339.529663 33.841278,336.048218 34.044567,332.588745 
	C34.239883,329.265045 32.971039,327.055634 29.948984,324.932373 
	C26.989244,324.674194 24.029505,324.416046 20.192572,324.317169 
	C20.126511,340.155029 20.045002,355.992889 20.047480,371.830750 
	C20.047585,372.506500 20.825005,373.182098 21.739176,374.207245 
	C22.455238,374.491089 23.171301,374.774963 23.991598,375.885529 
	C25.226969,376.691467 26.360863,377.826752 27.715910,378.244324 
	C32.638649,379.761200 33.972721,378.768768 33.995617,373.901611 
	C34.016590,369.442841 33.863075,364.976776 34.092529,360.529724 
	C34.154129,359.335876 35.348343,357.185852 35.995884,357.195892 
	C41.656158,357.283813 47.310360,357.762665 52.995926,359.042877 
	C52.996357,363.174194 52.772385,367.325073 53.129799,371.425262 
	C53.241440,372.705994 54.922493,373.849945 56.174389,375.707916 
	C57.640133,378.992767 60.762066,379.352570 63.463528,378.765900 
	C64.724564,378.492065 66.008148,375.850586 66.287201,374.121735 
	C66.678513,371.697418 66.033119,369.123901 66.022247,366.613342 
	C65.976913,356.150299 65.930595,345.686188 66.039642,335.224060 
	C66.081993,331.161224 66.369766,327.165894 61.600044,324.154663 
	C59.272720,324.105988 56.905869,323.796600 54.638069,324.140472 
	C53.764709,324.272888 52.485428,325.884277 52.475197,326.833496 
	C52.430969,330.936066 53.063934,335.058014 52.842247,339.139862 
	C52.769505,340.479248 50.986767,342.674408 49.766125,342.838074 
	C44.576023,343.533813 39.303413,343.614136 34.019115,343.001495 
M75.821808,304.670380 
	C75.828812,275.117676 75.835815,245.564941 76.095970,215.417358 
	C76.778748,214.609543 77.461533,213.801727 78.535431,213.021454 
	C78.535431,213.021454 78.906380,212.894440 79.863167,212.977203 
	C101.257607,212.985291 122.652077,213.010803 144.046387,212.960190 
	C145.398300,212.957001 146.748825,212.360565 148.590851,212.103592 
	C148.590851,212.103592 149.075867,212.202271 149.588409,212.848877 
	C154.317719,212.566711 159.105774,212.661697 163.766022,211.936050 
	C182.421829,209.031113 195.547363,198.842621 200.804016,180.591309 
	C203.237305,172.142838 203.620148,162.951874 203.875671,154.067154 
	C204.183838,143.351501 203.248917,132.605591 203.069931,121.869133 
	C202.809540,106.250061 196.156784,93.353889 185.244415,82.928886 
	C174.718018,72.872650 161.584610,68.746162 146.020340,70.035133 
	C143.102173,70.035133 140.184006,70.035133 137.036209,70.035133 
	C137.036209,72.452118 137.036209,74.257462 137.036209,76.062813 
	C137.036209,100.800110 137.068222,125.537514 136.988251,150.274551 
	C136.979965,152.839447 136.305969,155.402191 135.336441,158.227432 
	C134.226562,158.864273 133.116684,159.501129 131.069305,160.028976 
	C105.387802,160.070480 79.706299,160.112000 53.350964,160.257019 
	C46.643414,161.203476 39.919273,161.796799 33.869484,165.509308 
	C20.477140,173.727615 11.072865,184.495956 9.202860,201.392578 
	C9.182422,215.939407 9.161984,230.486237 9.036535,245.944077 
	C9.357381,250.545670 9.631421,255.151077 10.007387,259.748169 
	C11.437370,277.233215 19.980843,290.192688 35.003342,298.981049 
	C35.003342,298.981049 35.024445,298.934021 34.999317,299.394287 
	C35.109898,299.750275 35.347649,299.891449 36.449780,300.036896 
	C44.779831,304.404053 53.436172,307.491608 63.807808,306.670898 
	C64.949982,306.696442 66.129272,306.917206 67.226921,306.708527 
	C69.840317,306.211670 73.208862,309.270538 75.821808,304.670380 
M202.813385,261.707794 
	C202.875748,244.459274 202.948532,227.210739 202.957138,209.962204 
	C202.957443,209.358505 202.318985,208.754486 201.083588,207.994186 
	C197.660736,208.335846 194.237869,208.677490 190.076263,209.005936 
	C180.741516,207.582245 172.187607,210.576172 164.482681,215.044220 
	C159.002457,218.222168 154.106262,222.886932 149.936600,227.736847 
	C143.070404,235.723206 138.028687,244.826355 137.201263,256.309937 
	C137.142273,272.661957 137.074997,289.014008 137.064087,305.366058 
	C137.063751,305.856934 137.653183,306.348175 138.835739,306.957886 
	C141.645172,306.567841 144.454605,306.177765 148.059372,305.878784 
	C149.941727,306.246826 151.911591,307.171539 153.692093,306.891632 
	C164.401917,305.208069 174.655319,302.306091 183.186447,295.045105 
	C193.439285,286.318726 200.322968,275.727997 202.813385,261.707794 
M75.320915,73.194290 
	C74.495979,72.129349 73.752281,70.239006 72.831444,70.148369 
	C69.575226,69.827850 66.258400,70.123062 62.100399,70.048546 
	C46.055264,69.925064 32.609447,75.652885 22.393267,88.156693 
	C15.326948,96.805321 9.948524,106.287071 9.158052,118.367943 
	C9.101320,133.281677 9.032127,148.195404 9.034576,163.109131 
	C9.034672,163.690414 9.720975,164.271576 10.938057,164.961472 
	C13.692986,164.573868 16.447914,164.186264 20.016809,163.895187 
	C21.556608,164.271774 23.120380,165.049774 24.632298,164.959488 
	C34.106270,164.393692 43.382072,161.491562 50.810574,156.312271 
	C66.493614,145.377762 75.497971,130.011261 75.800224,109.698982 
	C75.865578,98.426682 75.947701,87.154381 75.954453,75.882050 
	C75.954857,75.208443 75.352043,74.534477 75.320915,73.194290 
M240.886124,296.959015 
	C250.212646,297.625366 257.590118,294.267883 264.220215,287.507782 
	C288.091339,263.168671 312.342804,239.202789 336.412079,215.057556 
	C339.852112,211.606659 343.697113,209.627914 348.729401,209.925903 
	C351.143494,210.068863 353.602692,209.450790 356.523224,209.873184 
	C376.992554,209.862915 397.461884,209.852646 418.870117,209.958755 
	C423.844635,209.986099 428.820374,210.095779 433.793457,210.024261 
	C445.420929,209.857010 455.789032,226.988998 452.294830,236.733765 
	C448.782898,246.528091 441.885986,250.792923 431.882141,253.098541 
	C422.919312,253.115707 413.956512,253.132874 404.213959,253.363052 
	C401.468292,253.521973 398.722626,253.680893 395.515350,253.120850 
	C375.483795,253.076736 355.452209,253.021454 335.420654,253.028000 
	C334.593933,253.028275 333.767365,253.608032 332.173492,253.946732 
	C329.530518,255.384232 326.499054,256.389343 324.322021,258.345428 
	C319.106628,263.031494 314.322510,268.194763 309.310272,273.110321 
	C301.894806,280.382721 294.432526,287.607361 286.231903,295.234314 
	C287.695343,295.822021 289.157562,296.919647 290.622437,296.923218 
	C331.914825,297.024231 373.207458,297.024414 414.500031,296.985352 
	C416.007263,296.983917 417.513977,296.420105 419.951721,296.027649 
	C427.117615,296.017548 434.409088,296.834137 441.414948,295.770233 
	C448.764374,294.654114 456.280579,292.638000 462.932343,289.392792 
	C473.020355,284.471069 480.269318,276.078125 486.123627,266.443909 
	C492.947998,255.213318 497.495178,243.224548 496.837677,230.053940 
	C496.218719,217.654541 492.266479,206.008209 485.178772,195.628754 
	C478.226257,185.447281 469.602478,177.319748 458.251251,171.927094 
	C445.333588,165.790253 431.510620,166.649124 418.014252,166.199127 
	C395.375183,165.444305 372.692444,165.990494 350.028076,166.007965 
	C344.307404,166.012375 339.516602,163.999146 335.453552,159.925552 
	C310.388367,134.795227 285.271240,109.716690 260.185730,84.606590 
	C256.432922,80.850090 252.189972,78.521286 246.644318,78.964783 
	C240.711685,79.439247 234.756607,79.970711 228.815521,79.925766 
	C219.040970,79.851837 209.271271,79.246887 199.495880,79.081604 
	C197.709183,79.051392 195.905106,80.049065 194.109055,80.572258 
	C195.063324,82.201088 195.726135,84.119659 197.014832,85.416039 
	C223.802017,112.363037 250.659393,139.240250 277.507843,166.126343 
	C278.447754,167.067566 279.435364,167.961411 280.405914,168.871826 
	C287.745911,175.756958 295.087189,182.640732 303.214478,190.262405 
	C291.209961,201.894165 279.746429,212.807327 268.502655,223.942413 
	C252.162323,240.124802 236.000290,256.487122 219.722321,272.732697 
	C212.182373,280.257660 204.548294,287.688293 196.197510,295.316803 
	C195.844833,295.667114 195.492142,296.017426 194.658432,296.845520 
	C210.088303,296.845520 225.039749,296.845520 240.886124,296.959015 
M459.282776,85.097198 
	C450.944244,81.187614 442.187317,79.079056 432.961578,79.076714 
	C385.638153,79.064697 338.314728,79.067635 290.991302,79.065369 
	C289.406219,79.065292 287.821167,79.065361 285.585968,79.065361 
	C286.272003,80.259430 286.470062,80.859993 286.868805,81.260895 
	C297.677307,92.127769 308.319824,103.170265 319.421234,113.730164 
	C324.038452,118.122192 328.825500,122.291016 336.394104,122.127991 
	C357.712860,121.668777 379.049133,121.871117 400.376770,122.035645 
	C412.302582,122.127647 424.240326,122.405449 436.142151,123.112938 
	C441.603210,123.437569 447.253693,124.279152 452.357666,126.145805 
	C463.425262,130.193527 474.202332,135.037796 485.085449,139.586823 
	C488.840973,141.156586 492.558655,142.816727 496.642029,144.586578 
	C495.631683,116.938065 480.807983,95.693924 459.282776,85.097198 
M23.020355,395.557831 
	C23.024469,398.224060 22.762339,400.929077 23.142614,403.540527 
	C23.339033,404.889404 24.676304,406.072113 25.933121,407.995697 
	C27.048159,403.710968 27.759834,400.976196 28.757120,397.143951 
	C32.676785,401.555328 35.484951,404.715759 38.293118,407.876190 
	C38.719498,407.727295 39.145882,407.578400 39.572262,407.429504 
	C39.366352,406.100861 39.482445,404.597900 38.879570,403.484131 
	C37.959446,401.784180 36.591518,400.311615 35.325489,398.817261 
	C33.084045,396.171570 32.048462,394.010437 36.201195,391.907867 
	C37.996857,390.998688 39.089363,388.700775 40.501282,387.033691 
	C39.939644,386.496552 39.378002,385.959412 38.816364,385.422272 
	C35.175716,388.636353 31.535072,391.850403 27.968626,394.998932 
	C27.447594,394.519989 27.268368,394.436127 27.235498,394.313110 
	C26.518272,391.629364 25.817327,388.941315 25.113245,386.254059 
	C24.415632,389.039215 23.718019,391.824402 23.020355,395.557831 
M362.196228,399.978973 
	C363.726410,399.717682 365.256592,399.456360 366.861145,399.182373 
	C364.752197,392.086853 361.937683,390.026367 356.366119,391.059601 
	C351.618622,391.940033 351.354950,396.023560 351.193634,399.405182 
	C350.964111,404.216156 354.932678,407.895416 359.392609,407.966797 
	C362.898926,408.022919 365.308655,406.246735 365.686646,403.327454 
	C355.792969,403.119812 355.792969,403.119812 355.369690,399.979462 
	C357.394012,399.979462 359.359985,399.979462 362.196228,399.978973 
M333.042938,390.847717 
	C333.517853,390.311829 334.510529,389.522278 334.390717,389.277740 
	C332.282471,384.974701 328.074707,384.647614 324.488525,385.657532 
	C322.573090,386.196960 320.799225,389.430786 320.146301,391.778168 
	C318.997498,395.908417 322.568390,396.864319 325.540131,398.011230 
	C327.720703,398.852844 329.822052,399.899658 332.274536,400.996216 
	C328.598724,404.509613 326.535126,404.759460 322.408722,402.948669 
	C321.685547,402.631287 320.751495,402.794434 319.914825,402.735657 
	C319.940125,403.467590 319.744781,404.732941 320.024902,404.848785 
	C322.781342,405.988953 325.600952,407.671387 328.434387,407.732666 
	C331.203430,407.792480 334.228638,406.494141 334.944427,402.856018 
	C335.675903,399.138031 333.131317,396.489746 328.012482,394.889099 
	C326.266327,394.343079 324.942902,392.445282 323.426331,391.165070 
	C325.525452,390.551270 327.596191,389.759552 329.738708,389.417969 
	C330.512634,389.294617 331.458649,390.250580 333.042938,390.847717 
M244.652542,391.202515 
	C242.945419,391.156616 241.216293,391.267700 239.535828,391.031860 
	C236.137115,390.554840 232.761215,391.022247 232.036057,394.667603 
	C231.389465,397.917877 231.239471,402.022034 232.745880,404.690582 
	C233.821396,406.595825 237.945679,407.114990 240.816162,407.552032 
	C242.672623,407.834625 244.721603,406.852692 247.611450,406.241241 
	C246.920273,401.374237 246.201447,396.312439 244.652542,391.202515 
M72.189278,395.600159 
	C70.144028,390.317444 65.449425,390.436554 61.371765,391.303741 
	C59.588829,391.682892 57.695896,394.896454 57.174480,397.131226 
	C56.205044,401.286194 56.734585,405.296875 61.638103,407.328247 
	C68.051979,409.985260 73.497772,404.601837 72.189278,395.600159 
M278.990051,401.422729 
	C278.987457,391.386841 278.987457,391.386841 265.258850,391.799347 
	C265.258850,396.755768 265.258850,401.712219 265.258850,406.668640 
	C265.792877,406.882568 266.326904,407.096497 266.860931,407.310425 
	C267.570251,405.650299 268.391052,404.027557 268.963562,402.321503 
	C269.894379,399.547760 266.786041,394.491913 271.882233,394.284393 
	C277.426270,394.058624 275.624451,399.267426 276.037750,402.626221 
	C276.222229,404.125336 276.702606,405.588043 277.048676,407.067261 
	C277.613434,406.951935 278.178223,406.836609 278.742981,406.721313 
	C278.825256,405.259857 278.907562,403.798401 278.990051,401.422729 
M101.010109,401.402344 
	C101.269844,403.780273 100.023575,407.144989 105.632248,406.769623 
	C104.853058,402.011383 105.361786,396.496094 102.914474,393.130096 
	C101.213654,390.790863 95.449226,391.406189 91.475601,390.697144 
	C91.475601,396.553802 91.475601,401.699127 91.475601,406.844452 
	C91.906227,406.956635 92.336853,407.068817 92.767479,407.181000 
	C93.171471,406.237885 93.840439,405.317932 93.925308,404.346954 
	C94.112663,402.203522 93.451920,399.816833 94.188103,397.942108 
	C94.816437,396.341949 96.911720,395.317841 98.358116,394.038910 
	C99.238548,395.365997 100.246635,396.630341 100.943481,398.047699 
	C101.272926,398.717773 101.006378,399.680847 101.010109,401.402344 
M124.059586,399.536774 
	C126.431900,400.464539 128.804214,401.392334 131.176529,402.320099 
	C130.978607,402.936615 130.780685,403.553131 130.582764,404.169647 
	C128.040100,403.730438 125.497452,403.291260 122.709488,402.809692 
	C122.526711,403.372284 121.991219,404.708435 122.091438,404.757935 
	C124.417557,405.907196 126.842461,407.764832 129.185425,407.682373 
	C131.038193,407.617188 133.859589,405.392273 134.280930,403.649994 
	C134.623154,402.235016 132.276291,399.857391 130.681931,398.382385 
	C129.337280,397.138367 127.360161,396.577972 125.662994,395.714996 
	C125.908058,395.135681 126.153130,394.556396 126.398193,393.977112 
	C128.884186,394.271027 131.370178,394.564941 134.009018,394.876923 
	C132.261627,391.423340 127.612900,389.581390 124.653725,391.283203 
	C121.257843,393.236176 122.378059,396.182892 124.059586,399.536774 
M163.592163,391.196838 
	C163.064728,393.327087 162.060883,395.470154 162.117615,397.584717 
	C162.210861,401.061035 161.449356,403.640106 156.653580,405.210144 
	C156.082581,402.784485 155.564865,400.457855 154.982651,398.147522 
	C154.395721,395.818451 156.591797,392.414124 152.003342,391.068634 
	C152.003342,394.593079 152.304947,397.774231 151.925400,400.871948 
	C151.472519,404.568176 153.188797,407.203400 156.302307,407.415344 
	C159.002777,407.599121 163.849640,406.233032 164.235687,404.679291 
	C165.293259,400.422974 164.500320,395.706818 163.592163,391.196838 
M474.606201,405.948181 
	C477.632843,398.655182 468.558136,399.097931 466.531128,394.130127 
	C469.808075,394.388794 472.272217,394.583313 475.568909,394.843506 
	C472.007965,391.016541 465.302094,389.526642 464.123474,391.852936 
	C460.024200,399.943634 468.461395,399.691437 472.192932,402.568817 
	C472.025543,403.141144 471.858154,403.713501 471.690765,404.285858 
	C468.711182,404.059052 465.731628,403.832214 462.895172,403.616302 
	C464.449951,408.104034 466.624115,408.724304 474.606201,405.948181 
M413.094818,400.420074 
	C413.747070,402.083008 414.013306,404.145508 415.181641,405.274323 
	C416.018433,406.082794 419.153931,406.174622 419.398987,405.673798 
	C421.644775,401.083710 423.482361,396.293884 425.438995,391.562347 
	C419.294800,392.536987 420.713318,398.613373 417.639801,401.090881 
	C415.638794,397.630127 413.613647,394.127655 411.588531,390.625153 
	C410.853210,390.987762 410.117920,391.350372 409.382629,391.712982 
	C410.553864,394.366211 411.725128,397.019440 413.094818,400.420074 
M209.383057,387.066559 
	C208.758133,387.159760 208.133194,387.252960 207.508270,387.346161 
	C209.275833,391.019440 204.472549,390.694702 204.435974,391.790222 
	C204.367966,393.827454 206.400299,395.839691 206.946716,398.015869 
	C207.679840,400.935608 207.832489,404.001068 208.260376,407.198517 
	C210.531799,406.965729 212.164291,406.798431 214.494766,406.559570 
	C209.255890,402.927765 209.894638,395.457672 214.655411,393.030609 
	C213.121078,391.209991 211.563004,389.361206 209.383057,387.066559 
M187.998749,394.554932 
	C187.998413,386.017365 187.998413,386.017365 184.444901,385.391388 
	C184.444901,392.537140 184.444901,399.666412 184.444901,406.795685 
	C184.923798,406.977936 185.402695,407.160187 185.881592,407.342438 
	C186.583450,406.051270 187.723862,404.814850 187.893356,403.457214 
	C188.219177,400.847839 187.994873,398.169739 187.998749,394.554932 
M387.595612,405.752533 
	C387.725983,404.778442 387.956696,403.805634 387.969330,402.830017 
	C388.024414,398.585052 386.640503,393.530304 393.589264,393.323273 
	C393.701508,393.319885 393.780212,392.191498 393.959503,391.044922 
	C390.546600,391.212646 387.445709,391.365051 384.023529,391.533234 
	C384.023529,395.859131 384.032410,400.148071 384.019836,404.436951 
	C384.013428,406.632904 384.748138,407.637543 387.595612,405.752533 
M442.113373,392.206451 
	C441.673523,405.394409 441.673523,405.394409 444.936432,407.057861 
	C444.936432,402.204224 445.029144,397.660034 444.826233,393.129120 
	C444.799011,392.521301 443.279449,391.980316 442.113373,392.206451 
z"/>
<path fill="#1547AE" opacity="1.000000" stroke="none" 
	d="
M395.976959,253.839828 
	C398.722626,253.680893 401.468292,253.521973 404.894226,253.564178 
	C414.644165,253.570923 423.713837,253.376541 432.783478,253.182159 
	C441.885986,250.792923 448.782898,246.528091 452.294830,236.733765 
	C455.789032,226.988998 445.420929,209.857010 433.793457,210.024261 
	C428.820374,210.095779 423.844635,209.986099 418.121094,209.590454 
	C396.928558,209.207214 376.484985,209.192291 356.041443,209.177368 
	C353.602692,209.450790 351.143494,210.068863 348.729401,209.925903 
	C343.697113,209.627914 339.852112,211.606659 336.412079,215.057556 
	C312.342804,239.202789 288.091339,263.168671 264.220215,287.507782 
	C257.590118,294.267883 250.212646,297.625366 240.179001,296.564148 
	C227.018097,296.117706 214.564011,296.097992 202.110886,295.977631 
	C200.390427,295.961029 198.674774,295.445953 196.956894,295.161682 
	C204.548294,287.688293 212.182373,280.257660 219.722321,272.732697 
	C236.000290,256.487122 252.162323,240.124802 268.502655,223.942413 
	C279.746429,212.807327 291.209961,201.894165 303.214478,190.262405 
	C295.087189,182.640732 287.745911,175.756958 280.405914,168.871826 
	C279.435364,167.961411 278.447754,167.067566 277.507843,166.126343 
	C250.659393,139.240250 223.802017,112.363037 197.014832,85.416039 
	C195.726135,84.119659 195.063324,82.201088 194.109055,80.572258 
	C195.905106,80.049065 197.709183,79.051392 199.495880,79.081604 
	C209.271271,79.246887 219.040970,79.851837 228.815521,79.925766 
	C234.756607,79.970711 240.711685,79.439247 246.644318,78.964783 
	C252.189972,78.521286 256.432922,80.850090 260.185730,84.606590 
	C285.271240,109.716690 310.388367,134.795227 335.453552,159.925552 
	C339.516602,163.999146 344.307404,166.012375 350.028076,166.007965 
	C372.692444,165.990494 395.375183,165.444305 418.014252,166.199127 
	C431.510620,166.649124 445.333588,165.790253 458.251251,171.927094 
	C469.602478,177.319748 478.226257,185.447281 485.178772,195.628754 
	C492.266479,206.008209 496.218719,217.654541 496.837677,230.053940 
	C497.495178,243.224548 492.947998,255.213318 486.123627,266.443909 
	C480.269318,276.078125 473.020355,284.471069 462.932343,289.392792 
	C456.280579,292.638000 448.764374,294.654114 441.414948,295.770233 
	C434.409088,296.834137 427.117615,296.017548 419.020020,296.002380 
	C376.224213,295.986969 334.360138,296.011536 292.496155,295.957855 
	C290.660370,295.955505 288.825500,295.237152 286.990204,294.852325 
	C294.432526,287.607361 301.894806,280.382721 309.310272,273.110321 
	C314.322510,268.194763 319.106628,263.031494 324.322021,258.345428 
	C326.499054,256.389343 329.530518,255.384232 333.026489,253.993790 
	C354.578644,253.973846 375.277802,253.906830 395.976959,253.839828 
z"/>
<path fill="#1546AD" opacity="1.000000" stroke="none" 
	d="
M78.906380,212.894440 
	C78.906380,212.894440 78.535431,213.021454 77.877983,212.931793 
	C72.833672,213.579681 68.446808,214.317245 63.702507,215.071228 
	C54.148323,219.432281 46.379803,225.621399 40.295086,233.733551 
	C28.743849,249.133667 27.432388,266.430847 31.465422,284.577240 
	C32.538074,289.403595 33.851841,294.176361 35.054909,298.973724 
	C19.980843,290.192688 11.437370,277.233215 10.007387,259.748169 
	C9.631421,255.151077 9.357381,250.545670 9.367589,245.171478 
	C9.779548,229.908936 9.860452,215.418976 9.941357,200.929031 
	C11.072865,184.495956 20.477140,173.727615 33.869484,165.509308 
	C39.919273,161.796799 46.643414,161.203476 54.025265,160.443878 
	C55.511921,160.759735 56.324215,161.000946 57.136635,161.001373 
	C80.829529,161.013702 104.522461,161.015121 128.215240,160.957733 
	C129.479752,160.954666 130.742996,160.423386 132.006805,160.137970 
	C133.116684,159.501129 134.226562,158.864273 136.014603,158.134720 
	C158.897110,150.507233 174.268021,126.912926 171.155884,103.939735 
	C169.941956,94.978615 167.001678,86.251366 165.172729,77.610382 
	C182.190002,88.774071 190.834213,104.202286 190.986801,124.218109 
	C191.095978,138.537109 190.671814,152.867416 191.088272,167.175156 
	C191.703125,188.299438 172.859085,211.337967 149.075867,212.202271 
	C149.075867,212.202271 148.590851,212.103592 147.871201,212.043793 
	C126.337868,211.990036 105.524117,211.972610 84.710640,212.040894 
	C82.774979,212.047241 80.841087,212.596985 78.906380,212.894440 
z"/>
<path fill="#7CA5FE" opacity="1.000000" stroke="none" 
	d="
M459.611511,85.300240 
	C480.807983,95.693924 495.631683,116.938065 496.642029,144.586578 
	C492.558655,142.816727 488.840973,141.156586 485.085449,139.586823 
	C474.202332,135.037796 463.425262,130.193527 452.357666,126.145805 
	C447.253693,124.279152 441.603210,123.437569 436.142151,123.112938 
	C424.240326,122.405449 412.302582,122.127647 400.376770,122.035645 
	C379.049133,121.871117 357.712860,121.668777 336.394104,122.127991 
	C328.825500,122.291016 324.038452,118.122192 319.421234,113.730164 
	C308.319824,103.170265 297.677307,92.127769 286.868805,81.260895 
	C286.470062,80.859993 286.272003,80.259430 285.585968,79.065361 
	C287.821167,79.065361 289.406219,79.065292 290.991302,79.065369 
	C338.314728,79.067635 385.638153,79.064697 432.961578,79.076714 
	C442.187317,79.079056 450.944244,81.187614 459.611511,85.300240 
z"/>
<path fill="#1547AD" opacity="1.000000" stroke="none" 
	d="
M147.264038,305.787689 
	C144.454605,306.177765 141.645172,306.567841 138.409149,306.440735 
	C137.979492,289.239441 137.976440,272.555328 137.973389,255.871185 
	C138.028687,244.826355 143.070404,235.723206 149.936600,227.736847 
	C154.106262,222.886932 159.002457,218.222168 164.482681,215.044220 
	C172.187607,210.576172 180.741516,207.582245 190.517853,209.472748 
	C190.974197,219.934875 191.041809,229.930481 190.985367,239.925369 
	C190.946854,246.746826 191.617218,253.723343 190.443054,260.360291 
	C186.112289,284.840057 171.374084,299.879883 147.264038,305.787689 
z"/>
<path fill="#1547AD" opacity="1.000000" stroke="none" 
	d="
M9.923174,117.943871 
	C9.948524,106.287071 15.326948,96.805321 22.393267,88.156693 
	C32.609447,75.652885 46.055264,69.925064 62.567055,70.570770 
	C63.047131,84.237869 63.201851,97.384964 62.995338,110.526390 
	C62.925503,114.970589 62.469379,119.546867 61.286236,123.812149 
	C55.276894,145.476013 40.954384,158.597748 19.202843,163.798660 
	C16.447914,164.186264 13.692986,164.573868 10.502567,164.449890 
	C10.019109,148.606842 9.971141,133.275360 9.923174,117.943871 
z"/>
<path fill="#7BA5FE" opacity="1.000000" stroke="none" 
	d="
M35.029121,298.977386 
	C33.851841,294.176361 32.538074,289.403595 31.465422,284.577240 
	C27.432388,266.430847 28.743849,249.133667 40.295086,233.733551 
	C46.379803,225.621399 54.148323,219.432281 63.684006,215.489838 
	C63.726868,218.845520 63.183331,221.798172 63.173271,224.752640 
	C63.080105,252.108322 63.078945,279.464325 63.051056,306.820221 
	C53.436172,307.491608 44.779831,304.404053 36.040375,299.724854 
	C35.560394,299.086853 35.358219,298.927277 35.024445,298.934021 
	C35.024445,298.934021 35.003342,298.981049 35.029121,298.977386 
z"/>
<path fill="#7BA5FE" opacity="1.000000" stroke="none" 
	d="
M164.847702,77.417587 
	C167.001678,86.251366 169.941956,94.978615 171.155884,103.939735 
	C174.268021,126.912926 158.897110,150.507233 136.316803,158.003967 
	C136.305969,155.402191 136.979965,152.839447 136.988251,150.274551 
	C137.068222,125.537514 137.036209,100.800110 137.036209,76.062813 
	C137.036209,74.257462 137.036209,72.452118 137.036209,70.035133 
	C140.184006,70.035133 143.102173,70.035133 146.780762,70.329597 
	C153.310028,72.888573 159.078857,75.153084 164.847702,77.417587 
z"/>
<path fill="#CBDBFE" opacity="1.000000" stroke="none" 
	d="
M165.172729,77.610382 
	C159.078857,75.153084 153.310028,72.888573 147.228424,70.405090 
	C161.584610,68.746162 174.718018,72.872650 185.244415,82.928886 
	C196.156784,93.353889 202.809540,106.250061 203.069931,121.869133 
	C203.248917,132.605591 204.183838,143.351501 203.875671,154.067154 
	C203.620148,162.951874 203.237305,172.142838 200.804016,180.591309 
	C195.547363,198.842621 182.421829,209.031113 163.766022,211.936050 
	C159.105774,212.661697 154.317719,212.566711 149.332138,212.525574 
	C172.859085,211.337967 191.703125,188.299438 191.088272,167.175156 
	C190.671814,152.867416 191.095978,138.537109 190.986801,124.218109 
	C190.834213,104.202286 182.190002,88.774071 165.172729,77.610382 
z"/>
<path fill="#7EA7FF" opacity="1.000000" stroke="none" 
	d="
M182.080399,323.939819 
	C184.488159,325.223694 186.895935,326.507538 189.738586,328.200714 
	C190.480057,328.729187 190.786652,328.848328 191.093231,328.967499 
	C191.093231,328.967499 191.025024,328.979797 190.986374,329.375000 
	C192.520248,339.065948 194.055145,348.350006 182.427032,353.954193 
	C184.872177,356.887024 186.988373,359.425323 189.104568,361.963623 
	C189.104568,361.963623 189.035324,361.980164 188.962524,362.319397 
	C190.296204,364.761627 191.702682,366.864655 193.109177,368.967651 
	C193.109177,368.967651 193.040237,368.978271 192.972672,369.370483 
	C193.402954,372.599976 192.562653,374.269684 189.329544,374.038269 
	C187.850983,373.932465 186.358078,374.027130 184.871674,374.030884 
	C182.569427,370.977875 180.150085,368.004181 178.009842,364.841583 
	C176.768631,363.007477 175.976166,360.869659 174.871979,358.153992 
	C172.108612,353.230072 167.230957,351.470734 161.456223,353.178741 
	C156.945923,354.512726 159.753082,358.504974 159.137360,361.244476 
	C158.783203,362.820221 158.916855,364.558441 159.102692,366.192657 
	C159.641205,370.927948 158.874283,374.637848 153.026581,374.835907 
	C147.511810,374.552460 149.452408,369.365662 149.344650,367.281555 
	C148.956604,359.774292 149.972473,352.194489 150.499252,344.000793 
	C158.758423,344.000793 167.354767,344.099365 175.945297,343.920044 
	C177.724670,343.882874 179.482483,342.813141 181.872131,341.810577 
	C182.390305,339.575684 182.286575,337.749542 182.193176,335.891846 
	C182.203522,335.860291 182.171356,335.802246 182.125717,335.427185 
	C180.028397,334.078125 178.016113,332.371063 175.918152,332.258331 
	C167.333664,331.797058 158.723022,331.822388 150.122009,331.668518 
	C150.033096,329.659515 149.944183,327.650543 150.370621,325.139099 
	C152.674408,324.420807 154.461227,324.034790 156.251526,324.018036 
	C164.860626,323.937317 173.470688,323.956238 182.080399,323.939819 
z"/>
<path fill="#7DA7FF" opacity="1.000000" stroke="none" 
	d="
M114.835403,363.995087 
	C120.961761,364.330505 127.097366,364.558868 133.207138,365.086365 
	C134.523666,365.200073 135.747040,366.392761 137.029221,367.952576 
	C137.526276,373.049469 135.392548,374.142609 131.480957,374.074707 
	C120.944252,373.891785 110.402153,374.020020 99.862190,374.024780 
	C98.901459,372.979095 97.368980,372.075226 97.069061,370.865692 
	C94.288536,359.652069 95.563232,357.084686 106.153130,349.913177 
	C111.660820,346.183350 116.930267,342.101715 122.939728,338.006195 
	C123.894066,337.566010 124.216003,337.298584 124.837212,336.896118 
	C126.135170,335.707642 127.133858,334.654205 128.132553,333.600800 
	C127.938606,332.944397 127.744675,332.288025 127.550735,331.631622 
	C117.405708,331.631622 107.260681,331.631622 97.115654,331.631622 
	C97.074554,331.257690 97.033463,330.883728 97.265579,329.905945 
	C97.589447,325.276093 99.291634,323.731384 103.614052,323.877319 
	C114.146698,324.232971 124.699013,324.006317 135.243408,324.014130 
	C135.785843,324.459869 136.328278,324.905609 136.919113,326.081665 
	C137.017761,328.305023 136.914490,329.822235 137.144806,331.286987 
	C138.138596,337.606506 135.711884,341.874969 130.268097,345.314209 
	C123.124992,349.826996 116.432861,355.057465 109.591415,360.040558 
	C108.256218,361.013062 107.124969,362.265564 105.899643,363.388916 
	C106.104759,363.954498 106.309875,364.520081 106.514999,365.085693 
	C109.288467,364.722168 112.061935,364.358612 114.835403,363.995087 
z"/>
<path fill="#C9DAFE" opacity="1.000000" stroke="none" 
	d="
M19.609825,163.846924 
	C40.954384,158.597748 55.276894,145.476013 61.286236,123.812149 
	C62.469379,119.546867 62.925503,114.970589 62.995338,110.526390 
	C63.201851,97.384964 63.047131,84.237869 62.999130,70.638924 
	C66.258400,70.123062 69.575226,69.827850 72.831444,70.148369 
	C73.752281,70.239006 74.495979,72.129349 75.147354,74.004677 
	C74.991852,86.591423 75.009911,98.367790 75.027969,110.144150 
	C75.497971,130.011261 66.493614,145.377762 50.810574,156.312271 
	C43.382072,161.491562 34.106270,164.393692 24.632298,164.959488 
	C23.120380,165.049774 21.556608,164.271774 19.609825,163.846924 
z"/>
<path fill="#C9DAFE" opacity="1.000000" stroke="none" 
	d="
M147.661713,305.833252 
	C171.374084,299.879883 186.112289,284.840057 190.443054,260.360291 
	C191.617218,253.723343 190.946854,246.746826 190.985367,239.925369 
	C191.041809,229.930481 190.974197,219.934875 190.887238,209.479355 
	C194.237869,208.677490 197.660736,208.335846 201.533386,208.531525 
	C201.999771,226.759430 202.016357,244.449982 202.032944,262.140533 
	C200.322968,275.727997 193.439285,286.318726 183.186447,295.045105 
	C174.655319,302.306091 164.401917,305.208069 153.692093,306.891632 
	C151.911591,307.171539 149.941727,306.246826 147.661713,305.833252 
z"/>
<path fill="#C7D8FE" opacity="1.000000" stroke="none" 
	d="
M63.429432,306.745544 
	C63.078945,279.464325 63.080105,252.108322 63.173271,224.752640 
	C63.183331,221.798172 63.726868,218.845520 64.041443,215.473419 
	C68.446808,214.317245 72.833672,213.579681 77.682426,212.918015 
	C77.461533,213.801727 76.778748,214.609543 75.739716,216.058487 
	C75.247871,217.849503 74.993927,218.999374 74.994003,220.149261 
	C74.995804,248.465302 75.024529,276.781342 75.048462,305.097382 
	C73.208862,309.270538 69.840317,306.211670 67.226921,306.708527 
	C66.129272,306.917206 64.949982,306.696442 63.429432,306.745544 
z"/>
<path fill="#7DA7FF" opacity="1.000000" stroke="none" 
	d="
M23.887363,375.058807 
	C23.171301,374.774963 22.455238,374.491089 21.440853,373.575378 
	C21.118275,356.681610 21.094019,340.419739 21.069765,324.157867 
	C24.029505,324.416046 26.989244,324.674194 29.718315,325.629211 
	C29.638391,330.919067 29.933344,335.513458 29.889345,340.104614 
	C29.859856,343.181732 31.147255,344.311768 34.060932,343.919189 
	C39.303413,343.614136 44.576023,343.533813 49.766125,342.838074 
	C50.986767,342.674408 52.769505,340.479248 52.842247,339.139862 
	C53.063934,335.058014 52.430969,330.936066 52.475197,326.833496 
	C52.485428,325.884277 53.764709,324.272888 54.638069,324.140472 
	C56.905869,323.796600 59.272720,324.105988 61.774002,324.988464 
	C61.978981,338.981842 61.835541,352.145355 62.130383,365.299042 
	C62.241940,370.275787 62.094978,374.428375 55.885132,375.056488 
	C54.922493,373.849945 53.241440,372.705994 53.129799,371.425262 
	C52.772385,367.325073 52.996357,363.174194 53.017345,358.151184 
	C53.390041,354.046753 51.977135,352.714355 48.748604,352.975372 
	C46.610981,353.148163 44.447868,353.004730 42.296169,353.004669 
	C29.931467,353.004303 29.732981,353.009125 30.026644,365.594116 
	C30.141319,370.508606 29.760828,374.368652 23.887363,375.058807 
z"/>
<path fill="#1648AE" opacity="1.000000" stroke="none" 
	d="
M443.990051,343.873535 
	C450.152191,343.873535 456.314331,343.873535 462.980499,343.873535 
	C462.980499,336.444092 462.980499,330.404419 462.980499,323.773834 
	C466.486145,325.331757 470.532471,321.051422 472.492737,326.791992 
	C472.218781,340.147339 472.126923,352.928162 472.075348,365.709137 
	C472.042236,373.915497 472.068787,373.915619 463.937500,374.026428 
	C463.612549,368.660492 463.287598,363.294556 462.969666,357.028076 
	C462.331635,355.091858 461.714722,353.177856 461.037170,353.156158 
	C454.117798,352.934540 447.188599,353.020538 439.843536,353.020538 
	C439.843536,358.699860 439.670135,363.823700 439.900848,368.929230 
	C440.071686,372.709747 439.012726,374.711182 434.869171,374.028473 
	C433.898285,373.868530 432.880524,373.993317 431.884308,373.987122 
	C431.884308,373.987091 431.545380,374.042206 431.346954,373.499268 
	C431.128845,356.688599 431.109161,340.420837 431.089508,324.153076 
	C433.243530,324.046692 435.423737,323.706451 437.539337,323.943268 
	C438.449585,324.045105 439.225983,325.343353 439.954529,326.941193 
	C439.845856,332.988983 439.845856,338.193604 439.845856,343.873535 
	C441.505829,343.873535 442.747955,343.873535 443.990051,343.873535 
z"/>
<path fill="#7EA7FF" opacity="1.000000" stroke="none" 
	d="
M232.196365,355.004913 
	C232.748245,355.783600 233.300110,356.562256 233.984116,358.012146 
	C235.834976,362.658203 234.306976,364.211761 230.228958,364.027893 
	C227.924637,363.924072 225.535568,363.663513 223.327103,364.137360 
	C221.667358,364.493469 219.200363,365.644196 218.882935,366.895386 
	C217.636307,371.809235 214.650070,374.277191 209.893280,375.061981 
	C206.073456,375.198395 205.210724,373.169586 206.476364,370.019531 
	C212.126785,355.956299 217.771866,341.889435 223.611267,327.904236 
	C226.233505,321.624084 232.723282,321.211578 238.547119,327.301819 
	C243.876160,340.175842 248.869751,352.469025 253.822830,364.778534 
	C257.512451,373.948059 257.489105,373.957458 247.883652,374.039093 
	C245.274597,368.461121 242.534683,362.939575 240.098618,357.287079 
	C238.206451,352.896606 236.693390,348.342712 234.985977,343.117126 
	C234.025421,340.139435 233.090714,337.906128 231.566788,334.264893 
	C228.676544,341.681335 226.326294,347.712158 223.679642,354.503571 
	C227.062805,354.702728 229.629593,354.853821 232.196365,355.004913 
z"/>
<path fill="#1849AE" opacity="1.000000" stroke="none" 
	d="
M384.817444,372.961304 
	C379.521240,369.912415 378.595367,364.317017 378.430786,359.313812 
	C378.139709,350.465363 379.091461,341.571014 379.625580,332.702057 
	C380.024017,326.084930 384.956482,324.448425 390.936279,323.523743 
	C400.092682,323.808777 408.582733,323.892548 417.072784,323.976349 
	C417.072784,323.976349 416.992859,323.997986 417.111969,324.412659 
	C418.158325,332.280640 418.070068,332.379364 410.567810,332.390991 
	C405.079712,332.399475 399.591644,332.412689 394.103546,332.423401 
	C390.149658,332.431152 387.731812,334.174866 387.705231,338.345856 
	C387.660767,345.321564 387.507202,352.308594 387.871674,359.266144 
	C387.960571,360.962952 389.883118,362.563690 391.290375,364.324280 
	C391.773254,364.267761 391.928345,364.095581 392.083435,363.923401 
	C392.083435,363.923401 392.005646,363.974609 391.863922,364.244171 
	C392.149780,364.654358 392.577393,364.794983 393.004974,364.935577 
	C399.822021,364.959869 406.647949,364.804596 413.449432,365.142212 
	C415.032196,365.220764 416.531738,366.976257 417.932861,368.781616 
	C418.085602,373.061401 416.530457,374.274719 413.076752,374.088318 
	C403.664154,373.580261 394.238129,373.319824 384.817444,372.961304 
z"/>
<path fill="#1648AE" opacity="1.000000" stroke="none" 
	d="
M339.923492,362.528320 
	C347.117340,362.687378 354.321259,362.684387 361.497101,363.131958 
	C363.073975,363.230316 364.550995,364.929932 365.913086,366.726562 
	C366.528168,372.824158 364.246338,374.467865 359.067657,374.066406 
	C350.711273,373.418640 342.309021,373.362549 333.926147,373.056580 
	C329.319061,371.237030 327.893219,366.876770 327.636383,362.896027 
	C327.227539,356.559601 324.131531,349.563538 331.011841,344.010681 
	C342.587067,343.988831 353.310181,343.953522 364.033264,343.918182 
	C364.332062,344.087372 364.630890,344.256561 364.984375,345.139832 
	C365.351898,352.994446 365.351898,352.995880 358.438385,352.997498 
	C351.049927,352.999237 343.661438,352.997894 336.142639,352.997894 
	C336.183411,357.136169 334.916718,361.113861 339.923492,362.528320 
z"/>
<path fill="#194AAF" opacity="1.000000" stroke="none" 
	d="
M270.180969,332.019043 
	C270.195129,329.185974 270.209320,326.352905 270.912109,323.596558 
	C285.415283,323.757172 299.229858,323.841095 313.044403,323.924988 
	C313.331482,324.109070 313.618530,324.293152 313.943634,325.180267 
	C314.138367,332.426392 314.138367,332.429596 307.648743,332.442535 
	C304.100372,332.449615 300.552002,332.443787 296.643585,332.443787 
	C296.643585,344.945496 296.492615,356.527039 296.721741,368.101044 
	C296.807190,372.420074 295.783020,374.844086 290.991455,374.114563 
	C290.291046,374.073547 289.590607,374.032532 288.509155,373.473358 
	C287.947113,360.909973 287.766113,348.864777 287.585571,336.441833 
	C287.838043,333.365021 286.728027,332.288696 283.914948,332.342072 
	C279.340637,332.428894 274.759308,332.145935 270.180969,332.019043 
z"/>
<path fill="#7DA7FF" opacity="1.000000" stroke="none" 
	d="
M75.105804,324.157593 
	C78.065437,324.458221 81.025078,324.758820 83.988144,325.753082 
	C83.996750,326.629669 84.001930,326.812592 83.997375,327.464417 
	C83.993240,340.519806 83.757805,353.113312 84.122925,365.689392 
	C84.269264,370.729797 83.609123,374.342072 77.887299,375.058685 
	C76.993484,374.641571 76.099670,374.224457 75.119110,373.026550 
	C75.056839,356.216370 75.081322,340.186981 75.105804,324.157593 
z"/>
<path fill="#1547AE" opacity="1.000000" stroke="none" 
	d="
M364.858704,324.076538 
	C365.242859,324.758728 365.627014,325.440948 365.842377,326.814056 
	C365.591370,330.071899 365.585358,332.419739 361.809021,332.330383 
	C350.265991,332.057373 338.717468,332.016022 327.171082,331.884583 
	C327.201385,329.085632 327.231720,326.286682 327.973694,323.552887 
	C340.743164,323.770874 352.800934,323.923706 364.858704,324.076538 
z"/>
<path fill="#CDDCFF" opacity="1.000000" stroke="none" 
	d="
M114.994331,363.674286 
	C112.061935,364.358612 109.288467,364.722168 106.514999,365.085693 
	C106.309875,364.520081 106.104759,363.954498 105.899643,363.388916 
	C107.124969,362.265564 108.256218,361.013062 109.591415,360.040558 
	C116.432861,355.057465 123.124992,349.826996 130.268097,345.314209 
	C135.711884,341.874969 138.138596,337.606506 137.144806,331.286987 
	C136.914490,329.822235 137.017761,328.305023 136.998047,326.340027 
	C144.301407,332.061401 144.210846,342.122253 136.569305,347.921204 
	C129.562195,353.238647 122.301964,358.222595 114.994331,363.674286 
z"/>
<path fill="#BDCFF8" opacity="1.000000" stroke="none" 
	d="
M390.962585,364.208618 
	C389.883118,362.563690 387.960571,360.962952 387.871674,359.266144 
	C387.507202,352.308594 387.660767,345.321564 387.705231,338.345856 
	C387.731812,334.174866 390.149658,332.431152 394.103546,332.423401 
	C399.591644,332.412689 405.079712,332.399475 410.567810,332.390991 
	C418.070068,332.379364 418.158325,332.280640 417.101013,324.372742 
	C418.066589,324.944214 419.721985,325.782074 420.143188,327.034882 
	C421.066498,329.781494 421.364532,332.738281 421.073730,335.799988 
	C412.151825,336.278259 404.074158,336.565735 395.996460,336.853149 
	C394.668213,338.015656 393.339996,339.178162 391.709351,341.034729 
	C391.258789,349.222076 391.110687,356.715332 390.962585,364.208618 
z"/>
<path fill="#C6D6FC" opacity="1.000000" stroke="none" 
	d="
M290.984894,374.546082 
	C295.783020,374.844086 296.807190,372.420074 296.721741,368.101044 
	C296.492615,356.527039 296.643585,344.945496 296.643585,332.443787 
	C300.552002,332.443787 304.100372,332.449615 307.648743,332.442535 
	C314.138367,332.429596 314.138367,332.426392 314.020599,325.431335 
	C318.327087,327.461304 318.611084,331.366943 317.028625,335.828369 
	C311.106079,336.390747 306.024414,336.763947 300.942749,337.137146 
	C300.942749,337.137146 300.954498,336.936615 300.785950,337.269348 
	C300.405151,339.050537 300.013000,340.498474 300.008972,341.947510 
	C299.976257,353.678497 300.016388,365.409668 300.034332,377.140808 
	C297.435486,377.427155 294.836945,377.852753 292.237488,377.858337 
	C291.819824,377.859253 291.398163,375.984985 290.984894,374.546082 
z"/>
<path fill="#CBDBFE" opacity="1.000000" stroke="none" 
	d="
M56.029762,375.382202 
	C62.094978,374.428375 62.241940,370.275787 62.130383,365.299042 
	C61.835541,352.145355 61.978981,338.981842 61.989868,325.346863 
	C66.369766,327.165894 66.081993,331.161224 66.039642,335.224060 
	C65.930595,345.686188 65.976913,356.150299 66.022247,366.613342 
	C66.033119,369.123901 66.678513,371.697418 66.287201,374.121735 
	C66.008148,375.850586 64.724564,378.492065 63.463528,378.765900 
	C60.762066,379.352570 57.640133,378.992767 56.029762,375.382202 
z"/>
<path fill="#C8D9FD" opacity="1.000000" stroke="none" 
	d="
M464.074036,374.397034 
	C472.068787,373.915619 472.042236,373.915497 472.075348,365.709137 
	C472.126923,352.928162 472.218781,340.147339 472.637054,327.094513 
	C473.989990,328.176239 475.857147,329.517426 475.877045,330.885468 
	C476.089142,345.485901 476.087006,360.091644 475.885468,374.692383 
	C475.865662,376.127625 474.126373,378.721985 473.189545,378.720001 
	C471.122742,378.715637 469.027100,377.469482 467.006989,376.584503 
	C466.002319,376.144379 465.138214,375.383453 464.074036,374.397034 
z"/>
<path fill="#CBDBFE" opacity="1.000000" stroke="none" 
	d="
M23.939480,375.472168 
	C29.760828,374.368652 30.141319,370.508606 30.026644,365.594116 
	C29.732981,353.009125 29.931467,353.004303 42.296169,353.004669 
	C44.447868,353.004730 46.610981,353.148163 48.748604,352.975372 
	C51.977135,352.714355 53.390041,354.046753 53.002563,357.692474 
	C47.310360,357.762665 41.656158,357.283813 35.995884,357.195892 
	C35.348343,357.185852 34.154129,359.335876 34.092529,360.529724 
	C33.863075,364.976776 34.016590,369.442841 33.995617,373.901611 
	C33.972721,378.768768 32.638649,379.761200 27.715910,378.244324 
	C26.360863,377.826752 25.226969,376.691467 23.939480,375.472168 
z"/>
<path fill="#CBDBFE" opacity="1.000000" stroke="none" 
	d="
M432.013672,374.340881 
	C432.880524,373.993317 433.898285,373.868530 434.869171,374.028473 
	C439.012726,374.711182 440.071686,372.709747 439.900848,368.929230 
	C439.670135,363.823700 439.843536,358.699860 439.843536,353.020538 
	C447.188599,353.020538 454.117798,352.934540 461.037170,353.156158 
	C461.714722,353.177856 462.331635,355.091858 462.918213,356.563293 
	C456.733124,356.999023 450.606537,356.999023 444.000000,356.999023 
	C444.000000,362.596893 444.016052,367.872528 443.992279,373.148010 
	C443.982452,375.331268 444.762634,378.418823 441.602356,378.576782 
	C439.125671,378.700592 436.539703,377.352448 434.069794,376.469391 
	C433.312805,376.198730 432.779022,375.303741 432.013672,374.340881 
z"/>
<path fill="#CDDCFF" opacity="1.000000" stroke="none" 
	d="
M100.006012,374.386719 
	C110.402153,374.020020 120.944252,373.891785 131.480957,374.074707 
	C135.392548,374.142609 137.526276,373.049469 137.076935,368.395142 
	C140.203522,368.962067 142.379410,370.948761 141.875000,374.311981 
	C141.313782,378.053833 138.692551,379.250336 134.909988,379.059814 
	C124.723396,378.546722 114.514465,378.457916 104.333931,377.865326 
	C102.883682,377.780884 101.541847,375.833710 100.006012,374.386719 
z"/>
<path fill="#CDDCFF" opacity="1.000000" stroke="none" 
	d="
M209.943802,375.473083 
	C214.650070,374.277191 217.636307,371.809235 218.882935,366.895386 
	C219.200363,365.644196 221.667358,364.493469 223.327103,364.137360 
	C225.535568,363.663513 227.924637,363.924072 230.228958,364.027893 
	C234.306976,364.211761 235.834976,362.658203 234.091003,358.301971 
	C236.000626,360.795776 237.935501,363.670959 239.870392,366.546143 
	C238.374985,367.363342 236.933304,368.735107 235.373383,368.886200 
	C231.754349,369.236786 228.078232,368.997772 224.457947,368.997772 
	C223.212418,371.640045 222.595856,374.706299 220.731674,376.396332 
	C218.952835,378.009003 215.910202,378.563538 213.348663,378.810303 
	C212.333954,378.908081 211.118423,376.921692 209.943802,375.473083 
z"/>
<path fill="#CBDBFE" opacity="1.000000" stroke="none" 
	d="
M77.943573,375.438660 
	C83.609123,374.342072 84.269264,370.729797 84.122925,365.689392 
	C83.757805,353.113312 83.993240,340.519806 84.287376,327.461639 
	C84.780060,326.975067 84.972992,326.960175 85.165924,326.945251 
	C85.569099,326.958954 85.972282,326.972656 86.788269,327.239807 
	C87.387108,327.725372 87.612549,327.909210 87.877411,328.044678 
	C87.918640,328.488464 87.959877,328.932281 87.717018,330.056396 
	C87.305435,346.533051 87.177940,362.329315 87.050438,378.125610 
	C83.473221,379.555023 80.088646,380.228638 77.943573,375.438660 
z"/>
<path fill="#1E4EB0" opacity="1.000000" stroke="none" 
	d="
M23.020382,395.083679 
	C23.718019,391.824402 24.415632,389.039215 25.113247,386.254059 
	C25.817327,388.941315 26.518272,391.629364 27.235498,394.313110 
	C27.268368,394.436127 27.447594,394.519989 27.968626,394.998932 
	C31.535072,391.850403 35.175716,388.636353 38.816364,385.422272 
	C39.378002,385.959412 39.939644,386.496552 40.501282,387.033691 
	C39.089363,388.700775 37.996857,390.998688 36.201195,391.907867 
	C32.048462,394.010437 33.084045,396.171570 35.325489,398.817261 
	C36.591518,400.311615 37.959446,401.784180 38.879570,403.484131 
	C39.482445,404.597900 39.366352,406.100861 39.572262,407.429504 
	C39.145882,407.578400 38.719498,407.727295 38.293118,407.876190 
	C35.484951,404.715759 32.676785,401.555328 28.757120,397.143951 
	C27.759834,400.976196 27.048159,403.710968 25.933121,407.995697 
	C24.676304,406.072113 23.339033,404.889404 23.142614,403.540527 
	C22.762339,400.929077 23.024469,398.224060 23.020382,395.083679 
z"/>
<path fill="#D2E0FF" opacity="1.000000" stroke="none" 
	d="
M248.024811,374.387146 
	C257.489105,373.957458 257.512451,373.948059 253.822830,364.778534 
	C248.869751,352.469025 243.876160,340.175842 238.826828,327.508392 
	C241.175552,331.073456 244.076157,334.794067 245.926575,338.979065 
	C250.836990,350.084625 255.349731,361.368103 259.907227,372.626740 
	C262.123016,378.100555 260.587067,380.103577 254.735474,378.836975 
	C252.360931,378.323029 250.345047,376.152130 248.024811,374.387146 
z"/>
<path fill="#BDCFF8" opacity="1.000000" stroke="none" 
	d="
M327.196106,332.247101 
	C338.717468,332.016022 350.265991,332.057373 361.809021,332.330383 
	C365.585358,332.419739 365.591370,330.071899 365.811829,327.111938 
	C370.044708,327.709900 371.117188,331.072968 367.998077,335.866577 
	C355.405060,336.011902 343.639832,336.027557 331.874603,336.043182 
	C330.323456,334.898651 328.772308,333.754150 327.196106,332.247101 
z"/>
<path fill="#1E4EB0" opacity="1.000000" stroke="none" 
	d="
M361.761108,399.979218 
	C359.359985,399.979462 357.394012,399.979462 355.369690,399.979462 
	C355.792969,403.119812 355.792969,403.119812 365.686646,403.327454 
	C365.308655,406.246735 362.898926,408.022919 359.392609,407.966797 
	C354.932678,407.895416 350.964111,404.216156 351.193634,399.405182 
	C351.354950,396.023560 351.618622,391.940033 356.366119,391.059601 
	C361.937683,390.026367 364.752197,392.086853 366.861145,399.182373 
	C365.256592,399.456360 363.726410,399.717682 361.761108,399.979218 
z"/>
<path fill="#1E4EB0" opacity="1.000000" stroke="none" 
	d="
M332.684509,390.780884 
	C331.458649,390.250580 330.512634,389.294617 329.738708,389.417969 
	C327.596191,389.759552 325.525452,390.551270 323.426331,391.165100 
	C324.942902,392.445282 326.266327,394.343079 328.012482,394.889099 
	C333.131317,396.489746 335.675903,399.138031 334.944427,402.856018 
	C334.228638,406.494141 331.203430,407.792480 328.434387,407.732666 
	C325.600952,407.671387 322.781342,405.988953 320.024902,404.848785 
	C319.744781,404.732941 319.940125,403.467590 319.914825,402.735657 
	C320.751495,402.794434 321.685547,402.631287 322.408722,402.948669 
	C326.535126,404.759460 328.598724,404.509613 332.274536,400.996216 
	C329.822052,399.899658 327.720703,398.852844 325.540131,398.011230 
	C322.568390,396.864319 318.997498,395.908417 320.146301,391.778168 
	C320.799225,389.430786 322.573090,386.196960 324.488525,385.657532 
	C328.074707,384.647614 332.282471,384.974701 334.390717,389.277740 
	C334.510529,389.522278 333.517853,390.311829 332.684509,390.780884 
z"/>
<path fill="#C8D9FD" opacity="1.000000" stroke="none" 
	d="
M339.964905,362.038116 
	C334.916718,361.113861 336.183411,357.136169 336.142639,352.997894 
	C343.661438,352.997894 351.049927,352.999237 358.438385,352.997498 
	C365.351898,352.995880 365.351898,352.994446 365.036316,345.402039 
	C369.023224,352.834900 369.023224,352.834900 368.631958,357.005157 
	C363.918793,357.005157 359.155457,357.005157 354.392120,357.005157 
	C349.777649,357.005157 345.163177,357.005157 340.006287,357.005157 
	C340.006287,358.704315 340.006287,360.126099 339.964905,362.038116 
z"/>
<path fill="#C9DAFE" opacity="1.000000" stroke="none" 
	d="
M153.375458,375.030579 
	C158.874283,374.637848 159.641205,370.927948 159.102692,366.192657 
	C158.916855,364.558441 158.783203,362.820221 159.137360,361.244476 
	C159.753082,358.504974 156.945923,354.512726 161.456223,353.178741 
	C167.230957,351.470734 172.108612,353.230072 174.868408,357.787903 
	C174.216858,357.826019 173.459091,357.515594 171.929047,357.120361 
	C162.996506,356.983337 162.990112,356.983337 162.997910,365.262146 
	C163.001297,368.867645 163.037003,372.473114 163.058044,376.078613 
	C161.740082,377.052704 160.443726,378.791504 159.099304,378.829468 
	C156.834381,378.893463 153.879715,378.817627 153.375458,375.030579 
z"/>
<path fill="#1E4EB0" opacity="1.000000" stroke="none" 
	d="
M245.067566,391.226562 
	C246.201447,396.312439 246.920273,401.374237 247.611450,406.241241 
	C244.721603,406.852692 242.672623,407.834625 240.816162,407.552032 
	C237.945679,407.114990 233.821396,406.595825 232.745880,404.690582 
	C231.239471,402.022034 231.389465,397.917877 232.036057,394.667603 
	C232.761215,391.022247 236.137115,390.554840 239.535828,391.031860 
	C241.216293,391.267700 242.945419,391.156616 245.067566,391.226562 
M242.969025,400.231323 
	C242.763809,395.242798 240.685745,392.800934 237.662186,394.401703 
	C236.082123,395.238251 234.343689,397.468689 234.319901,399.093628 
	C234.294144,400.851379 235.836990,403.660614 237.320801,404.162292 
	C239.362915,404.852753 242.225662,404.199554 242.969025,400.231323 
z"/>
<path fill="#CBDBFE" opacity="1.000000" stroke="none" 
	d="
M334.051422,373.389832 
	C342.309021,373.362549 350.711273,373.418640 359.067657,374.066406 
	C364.246338,374.467865 366.528168,372.824158 365.832703,367.121521 
	C371.498199,367.354736 369.784363,371.704346 369.953674,374.957672 
	C370.147125,378.674866 367.254608,377.978943 365.025299,377.989716 
	C358.381226,378.021790 351.729492,377.812134 345.095245,378.069916 
	C340.677979,378.241577 337.210205,376.693146 334.051422,373.389832 
z"/>
<path fill="#C9DAFE" opacity="1.000000" stroke="none" 
	d="
M384.947723,373.308228 
	C394.238129,373.319824 403.664154,373.580261 413.076752,374.088318 
	C416.530457,374.274719 418.085602,373.061401 417.871155,369.183044 
	C423.834747,368.855927 422.103180,373.369537 421.874603,376.333069 
	C421.628418,379.525360 419.155548,378.315704 416.838104,378.174408 
	C409.898590,377.751282 402.870056,378.491364 395.971588,377.810944 
	C392.240051,377.442841 388.702850,375.104614 384.947723,373.308228 
z"/>
<path fill="#CFDEFF" opacity="1.000000" stroke="none" 
	d="
M189.060822,361.598206 
	C186.988373,359.425323 184.872177,356.887024 182.427032,353.954193 
	C194.055145,348.350006 192.520248,339.065948 190.998779,329.342651 
	C197.843719,334.053680 196.222885,341.491089 195.687592,348.210144 
	C195.332932,352.661835 193.049362,356.965912 187.300156,357.196808 
	C187.908066,358.625854 188.462570,359.929321 189.060822,361.598206 
z"/>
<path fill="#1E4EB0" opacity="1.000000" stroke="none" 
	d="
M72.425369,395.932129 
	C73.497772,404.601837 68.051979,409.985260 61.638103,407.328247 
	C56.734585,405.296875 56.205044,401.286194 57.174480,397.131226 
	C57.695896,394.896454 59.588829,391.682892 61.371765,391.303741 
	C65.449425,390.436554 70.144028,390.317444 72.425369,395.932129 
M69.988800,399.401123 
	C68.394989,397.601898 67.020599,395.469666 65.082649,394.192749 
	C64.445457,393.772888 61.919376,395.234161 61.001736,396.414337 
	C58.466801,399.674469 60.159218,402.736115 63.050976,404.256165 
	C66.762611,406.207153 68.520218,403.088745 69.988800,399.401123 
z"/>
<path fill="#DFE6F5" opacity="1.000000" stroke="none" 
	d="
M286.611053,295.043335 
	C288.825500,295.237152 290.660370,295.955505 292.496155,295.957855 
	C334.360138,296.011536 376.224213,295.986969 418.554626,296.047729 
	C417.513977,296.420105 416.007263,296.983917 414.500031,296.985352 
	C373.207458,297.024414 331.914825,297.024231 290.622437,296.923218 
	C289.157562,296.919647 287.695343,295.822021 286.611053,295.043335 
z"/>
<path fill="#194AAF" opacity="1.000000" stroke="none" 
	d="
M278.989929,401.879822 
	C278.907562,403.798401 278.825256,405.259857 278.742981,406.721313 
	C278.178223,406.836609 277.613434,406.951935 277.048676,407.067261 
	C276.702606,405.588043 276.222229,404.125336 276.037750,402.626221 
	C275.624451,399.267426 277.426270,394.058624 271.882233,394.284393 
	C266.786041,394.491913 269.894379,399.547760 268.963562,402.321503 
	C268.391052,404.027557 267.570251,405.650299 266.860931,407.310425 
	C266.326904,407.096497 265.792877,406.882568 265.258850,406.668640 
	C265.258850,401.712219 265.258850,396.755768 265.258728,391.798035 
	C278.987457,391.386841 278.987457,391.386841 278.989929,401.879822 
z"/>
<path fill="#194AAF" opacity="1.000000" stroke="none" 
	d="
M101.009987,400.956757 
	C101.006378,399.680847 101.272926,398.717773 100.943481,398.047699 
	C100.246635,396.630341 99.238548,395.365997 98.358116,394.038910 
	C96.911720,395.317841 94.816437,396.341949 94.188103,397.942108 
	C93.451920,399.816833 94.112663,402.203522 93.925308,404.346954 
	C93.840439,405.317932 93.171471,406.237885 92.767479,407.181000 
	C92.336853,407.068817 91.906227,406.956635 91.475601,406.844452 
	C91.475601,401.699127 91.475601,396.553802 91.475601,390.697144 
	C95.449226,391.406189 101.213654,390.790863 102.914474,393.130096 
	C105.361786,396.496094 104.853058,402.011383 105.632248,406.769623 
	C100.023575,407.144989 101.269844,403.780273 101.009987,400.956757 
z"/>
<path fill="#2251B2" opacity="1.000000" stroke="none" 
	d="
M123.789505,399.258850 
	C122.378059,396.182892 121.257843,393.236176 124.653725,391.283203 
	C127.612900,389.581390 132.261627,391.423340 134.009018,394.876923 
	C131.370178,394.564941 128.884186,394.271027 126.398193,393.977112 
	C126.153130,394.556396 125.908058,395.135681 125.662994,395.714996 
	C127.360161,396.577972 129.337280,397.138367 130.681931,398.382385 
	C132.276291,399.857391 134.623154,402.235016 134.280930,403.649994 
	C133.859589,405.392273 131.038193,407.617188 129.185425,407.682373 
	C126.842461,407.764832 124.417557,405.907196 122.091438,404.757935 
	C121.991219,404.708435 122.526711,403.372284 122.709488,402.809692 
	C125.497452,403.291260 128.040100,403.730438 130.582764,404.169647 
	C130.780685,403.553131 130.978607,402.936615 131.176529,402.320099 
	C128.804214,401.392334 126.431900,400.464539 123.789505,399.258850 
z"/>
<path fill="#194AAF" opacity="1.000000" stroke="none" 
	d="
M164.016083,391.184784 
	C164.500320,395.706818 165.293259,400.422974 164.235687,404.679291 
	C163.849640,406.233032 159.002777,407.599121 156.302307,407.415344 
	C153.188797,407.203400 151.472519,404.568176 151.925400,400.871948 
	C152.304947,397.774231 152.003342,394.593079 152.003342,391.068634 
	C156.591797,392.414124 154.395721,395.818451 154.982651,398.147522 
	C155.564865,400.457855 156.082581,402.784485 156.653580,405.210144 
	C161.449356,403.640106 162.210861,401.061035 162.117615,397.584717 
	C162.060883,395.470154 163.064728,393.327087 164.016083,391.184784 
z"/>
<path fill="#2251B2" opacity="1.000000" stroke="none" 
	d="
M474.316742,406.236450 
	C466.624115,408.724304 464.449951,408.104034 462.895172,403.616302 
	C465.731628,403.832214 468.711182,404.059052 471.690765,404.285858 
	C471.858154,403.713501 472.025543,403.141144 472.192932,402.568817 
	C468.461395,399.691437 460.024200,399.943634 464.123474,391.852936 
	C465.302094,389.526642 472.007965,391.016541 475.568909,394.843506 
	C472.272217,394.583313 469.808075,394.388794 466.531128,394.130127 
	C468.558136,399.097931 477.632843,398.655182 474.316742,406.236450 
z"/>
<path fill="#C4D6FF" opacity="1.000000" stroke="none" 
	d="
M150.068146,332.065552 
	C158.723022,331.822388 167.333664,331.797058 175.918152,332.258331 
	C178.016113,332.371063 180.028397,334.078125 181.643829,335.482452 
	C172.188080,335.929962 163.168610,335.947205 154.149124,335.964417 
	C152.770828,334.797150 151.392548,333.629852 150.068146,332.065552 
z"/>
<path fill="#C4D6FF" opacity="1.000000" stroke="none" 
	d="
M97.063560,332.030518 
	C107.260681,331.631622 117.405708,331.631622 127.550735,331.631622 
	C127.744675,332.288025 127.938606,332.944397 128.132553,333.600800 
	C127.133858,334.654205 126.135170,335.707642 124.402740,336.880798 
	C123.380074,337.005859 123.091148,337.011169 122.802216,337.016449 
	C122.802216,337.016449 122.393562,337.018921 121.851845,336.720398 
	C114.587982,336.264008 107.865829,336.106140 101.143684,335.948242 
	C99.766281,334.775299 98.388878,333.602325 97.063560,332.030518 
z"/>
<path fill="#CBDBFE" opacity="1.000000" stroke="none" 
	d="
M232.027420,354.663544 
	C229.629593,354.853821 227.062805,354.702728 223.679642,354.503571 
	C226.326294,347.712158 228.676544,341.681335 231.566788,334.264893 
	C233.090714,337.906128 234.025421,340.139435 234.956512,342.739380 
	C233.329681,346.403656 231.681808,349.690125 230.167252,353.036926 
	C230.102142,353.180786 231.266739,353.881104 232.027420,354.663544 
z"/>
<path fill="#2856B4" opacity="1.000000" stroke="none" 
	d="
M412.995605,400.046387 
	C411.725128,397.019440 410.553864,394.366211 409.382629,391.712982 
	C410.117920,391.350372 410.853210,390.987762 411.588531,390.625153 
	C413.613647,394.127655 415.638794,397.630127 417.639801,401.090881 
	C420.713318,398.613373 419.294800,392.536987 425.438995,391.562347 
	C423.482361,396.293884 421.644775,401.083710 419.398987,405.673798 
	C419.153931,406.174622 416.018433,406.082794 415.181641,405.274323 
	C414.013306,404.145508 413.747070,402.083008 412.995605,400.046387 
z"/>
<path fill="#2251B2" opacity="1.000000" stroke="none" 
	d="
M209.694000,387.289490 
	C211.563004,389.361206 213.121078,391.209991 214.655411,393.030609 
	C209.894638,395.457672 209.255890,402.927765 214.494766,406.559570 
	C212.164291,406.798431 210.531799,406.965729 208.260376,407.198517 
	C207.832489,404.001068 207.679840,400.935608 206.946716,398.015869 
	C206.400299,395.839691 204.367966,393.827454 204.435974,391.790222 
	C204.472549,390.694702 209.275833,391.019440 207.508270,387.346161 
	C208.133194,387.252960 208.758133,387.159760 209.694000,387.289490 
z"/>
<path fill="#FFFFFF" opacity="1.000000" stroke="none" 
	d="
M75.435135,304.883881 
	C75.024529,276.781342 74.995804,248.465302 74.994003,220.149261 
	C74.993927,218.999374 75.247871,217.849503 75.613136,216.355927 
	C75.835815,245.564941 75.828812,275.117676 75.435135,304.883881 
z"/>
<path fill="#1546AD" opacity="1.000000" stroke="none" 
	d="
M187.998749,395.037537 
	C187.994873,398.169739 188.219177,400.847839 187.893356,403.457214 
	C187.723862,404.814850 186.583450,406.051270 185.881592,407.342438 
	C185.402695,407.160187 184.923798,406.977936 184.444901,406.795685 
	C184.444901,399.666412 184.444901,392.537140 184.444901,385.391388 
	C187.998413,386.017365 187.998413,386.017365 187.998749,395.037537 
z"/>
<path fill="#194AAF" opacity="1.000000" stroke="none" 
	d="
M387.289917,406.063416 
	C384.748138,407.637543 384.013428,406.632904 384.019836,404.436951 
	C384.032410,400.148071 384.023529,395.859131 384.023529,391.533234 
	C387.445709,391.365051 390.546600,391.212646 393.959503,391.044922 
	C393.780212,392.191498 393.701508,393.319885 393.589264,393.323273 
	C386.640503,393.530304 388.024414,398.585052 387.969330,402.830017 
	C387.956696,403.805634 387.725983,404.778442 387.289917,406.063416 
z"/>
<path fill="#446CC1" opacity="1.000000" stroke="none" 
	d="
M131.538055,160.083481 
	C130.742996,160.423386 129.479752,160.954666 128.215240,160.957733 
	C104.522461,161.015121 80.829529,161.013702 57.136635,161.001373 
	C56.324215,161.000946 55.511921,160.759735 54.362179,160.392120 
	C79.706299,160.112000 105.387802,160.070480 131.538055,160.083481 
z"/>
<path fill="#BDCFF8" opacity="1.000000" stroke="none" 
	d="
M270.303406,332.380005 
	C274.759308,332.145935 279.340637,332.428894 283.914948,332.342072 
	C286.728027,332.288696 287.838043,333.365021 287.396179,336.442871 
	C287.206329,336.821625 286.901550,337.046600 286.901550,337.046600 
	C282.843079,337.046600 278.784576,337.046600 275.821106,337.046600 
	C273.526947,335.215759 271.976410,333.978363 270.303406,332.380005 
z"/>
<path fill="#446CC1" opacity="1.000000" stroke="none" 
	d="
M79.384773,212.935822 
	C80.841087,212.596985 82.774979,212.047241 84.710640,212.040894 
	C105.524117,211.972610 126.337868,211.990036 147.625763,212.012054 
	C146.748825,212.360565 145.398300,212.957001 144.046387,212.960190 
	C122.652077,213.010803 101.257607,212.985291 79.384773,212.935822 
z"/>
<path fill="#CDDCFF" opacity="1.000000" stroke="none" 
	d="
M34.040024,343.460327 
	C31.147255,344.311768 29.859856,343.181732 29.889345,340.104614 
	C29.933344,335.513458 29.638391,330.919067 29.729446,326.041199 
	C32.971039,327.055634 34.239883,329.265045 34.044567,332.588745 
	C33.841278,336.048218 34.011955,339.529663 34.040024,343.460327 
z"/>
<path fill="#CBDBFE" opacity="1.000000" stroke="none" 
	d="
M443.994446,343.417908 
	C442.747955,343.873535 441.505829,343.873535 439.845856,343.873535 
	C439.845856,338.193604 439.845856,332.988983 439.909393,327.309021 
	C443.385468,326.612305 443.931519,328.923492 443.980499,331.513794 
	C444.052643,335.328705 443.998932,339.146027 443.994446,343.417908 
z"/>
<path fill="#C0CDE9" opacity="1.000000" stroke="none" 
	d="
M395.746155,253.480347 
	C375.277802,253.906830 354.578644,253.973846 333.410095,253.979324 
	C333.767365,253.608032 334.593933,253.028275 335.420654,253.028000 
	C355.452209,253.021454 375.483795,253.076736 395.746155,253.480347 
z"/>
<path fill="#C0CDE9" opacity="1.000000" stroke="none" 
	d="
M356.282349,209.525269 
	C376.484985,209.192291 396.928558,209.207214 417.651672,209.532257 
	C397.461884,209.852646 376.992554,209.862915 356.282349,209.525269 
z"/>
<path fill="#CFDEFF" opacity="1.000000" stroke="none" 
	d="
M185.015564,374.382355 
	C186.358078,374.027130 187.850983,373.932465 189.329544,374.038269 
	C192.562653,374.269684 193.402954,372.599976 192.979309,369.336243 
	C194.738693,371.383026 196.423889,373.856293 198.082321,376.290253 
	C194.776657,379.576172 188.461166,378.713623 185.015564,374.382355 
z"/>
<path fill="#ECF1FF" opacity="1.000000" stroke="none" 
	d="
M202.423157,261.924164 
	C202.016357,244.449982 201.999771,226.759430 201.980713,208.609741 
	C202.318985,208.754486 202.957443,209.358505 202.957138,209.962204 
	C202.948532,227.210739 202.875748,244.459274 202.423157,261.924164 
z"/>
<path fill="#DFE6F5" opacity="1.000000" stroke="none" 
	d="
M87.413498,377.946503 
	C87.177940,362.329315 87.305435,346.533051 87.638870,330.383362 
	C87.897072,342.006714 87.971649,353.983459 87.988876,365.960266 
	C87.994530,369.895874 87.851562,373.831665 87.413498,377.946503 
z"/>
<path fill="#587CC5" opacity="1.000000" stroke="none" 
	d="
M137.587326,256.090576 
	C137.976440,272.555328 137.979492,289.239441 137.975098,306.381409 
	C137.653183,306.348175 137.063751,305.856934 137.064087,305.366058 
	C137.074997,289.014008 137.142273,272.661957 137.587326,256.090576 
z"/>
<path fill="#B0C2E4" opacity="1.000000" stroke="none" 
	d="
M430.645935,324.217285 
	C431.109161,340.420837 431.128845,356.688599 431.198669,373.412659 
	C430.829498,373.179199 430.044464,372.489349 430.044495,371.799591 
	C430.045441,355.960205 430.131836,340.120850 430.645935,324.217285 
z"/>
<path fill="#D2E0FF" opacity="1.000000" stroke="none" 
	d="
M20.631168,324.237518 
	C21.094019,340.419739 21.118275,356.681610 21.191422,373.400635 
	C20.825005,373.182098 20.047585,372.506500 20.047480,371.830750 
	C20.045002,355.992889 20.126511,340.155029 20.631168,324.237518 
z"/>
<path fill="#ECF1FF" opacity="1.000000" stroke="none" 
	d="
M74.661369,324.224182 
	C75.081322,340.186981 75.056839,356.216370 75.026199,372.730896 
	C74.678627,372.544586 74.038849,371.872864 74.039581,371.201843 
	C74.056725,355.564789 74.143234,339.927765 74.661369,324.224182 
z"/>
<path fill="#194AAF" opacity="1.000000" stroke="none" 
	d="
M442.282166,391.807434 
	C443.279449,391.980316 444.799011,392.521301 444.826233,393.129120 
	C445.029144,397.660034 444.936432,402.204224 444.936432,407.057861 
	C441.673523,405.394409 441.673523,405.394409 442.282166,391.807434 
z"/>
<path fill="#86A0D5" opacity="1.000000" stroke="none" 
	d="
M9.540613,118.155907 
	C9.971141,133.275360 10.019109,148.606842 10.077305,164.395569 
	C9.720975,164.271576 9.034672,163.690414 9.034576,163.109131 
	C9.032127,148.195404 9.101320,133.281677 9.540613,118.155907 
z"/>
<path fill="#C0CDE9" opacity="1.000000" stroke="none" 
	d="
M196.577209,295.239258 
	C198.674774,295.445953 200.390427,295.961029 202.110886,295.977631 
	C214.564011,296.097992 227.018097,296.117706 239.731537,296.507385 
	C225.039749,296.845520 210.088303,296.845520 194.658432,296.845520 
	C195.492142,296.017426 195.844833,295.667114 196.577209,295.239258 
z"/>
<path fill="#B1CAFF" opacity="1.000000" stroke="none" 
	d="
M135.011917,323.622009 
	C124.699013,324.006317 114.146698,324.232971 103.614052,323.877319 
	C99.291634,323.731384 97.589447,325.276093 97.351166,329.634155 
	C97.163528,327.824524 97.163528,325.682831 97.163528,323.229889 
	C109.692513,323.229889 122.236465,323.229889 135.011917,323.622009 
z"/>
<path fill="#587CC5" opacity="1.000000" stroke="none" 
	d="
M9.572108,201.160797 
	C9.860452,215.418976 9.779548,229.908936 9.420095,244.715973 
	C9.161984,230.486237 9.182422,215.939407 9.572108,201.160797 
z"/>
<path fill="#708ECD" opacity="1.000000" stroke="none" 
	d="
M312.812164,323.559692 
	C299.229858,323.841095 285.415283,323.757172 271.274750,323.405090 
	C284.825806,323.156067 298.702881,323.175232 312.812164,323.559692 
z"/>
<path fill="#ECF1FF" opacity="1.000000" stroke="none" 
	d="
M300.419678,376.917969 
	C300.016388,365.409668 299.976257,353.678497 300.008972,341.947510 
	C300.013000,340.498474 300.405151,339.050537 300.886353,337.272644 
	C301.038513,350.193848 300.921753,363.444489 300.419678,376.917969 
z"/>
<path fill="#86A0D5" opacity="1.000000" stroke="none" 
	d="
M286.944275,337.510742 
	C286.901550,337.046600 287.206329,336.821625 287.395721,336.820587 
	C287.766113,348.864777 287.947113,360.909973 288.163055,373.413086 
	C287.798706,372.489441 287.066284,371.111084 287.053070,369.725891 
	C286.952148,359.143005 286.991394,348.558746 286.944275,337.510742 
z"/>
<path fill="#587CC5" opacity="1.000000" stroke="none" 
	d="
M364.737854,323.653473 
	C352.800934,323.923706 340.743164,323.770874 328.344849,323.381653 
	C340.208527,323.173706 352.412750,323.202057 364.737854,323.653473 
z"/>
<path fill="#FFFFFF" opacity="1.000000" stroke="none" 
	d="
M75.414093,109.921570 
	C75.009911,98.367790 74.991852,86.591423 75.001854,74.337875 
	C75.352043,74.534477 75.954857,75.208443 75.954453,75.882050 
	C75.947701,87.154381 75.865578,98.426682 75.414093,109.921570 
z"/>
<path fill="#ECF1FF" opacity="1.000000" stroke="none" 
	d="
M332.097076,336.426514 
	C343.639832,336.027557 355.405060,336.011902 367.645691,336.020569 
	C367.445007,336.361023 366.768860,336.952576 366.092865,336.952362 
	C354.835083,336.948792 343.577332,336.871033 332.097076,336.426514 
z"/>
<path fill="#ECF1FF" opacity="1.000000" stroke="none" 
	d="
M363.824066,343.535461 
	C353.310181,343.953522 342.587067,343.988831 331.391144,343.992126 
	C331.743073,343.636383 332.567535,343.032501 333.392670,343.031616 
	C343.466675,343.020630 353.540771,343.098145 363.824066,343.535461 
z"/>
<path fill="#B1CAFF" opacity="1.000000" stroke="none" 
	d="
M181.864807,323.557129 
	C173.470688,323.956238 164.860626,323.937317 156.251526,324.018036 
	C154.461227,324.034790 152.674408,324.420807 150.521057,324.823669 
	C151.081253,324.341156 152.001190,323.098877 152.932297,323.090424 
	C162.503555,323.003723 172.076630,323.116943 181.864807,323.557129 
z"/>
<path fill="#FFFFFF" opacity="1.000000" stroke="none" 
	d="
M163.444122,375.868835 
	C163.037003,372.473114 163.001297,368.867645 162.997910,365.262146 
	C162.990112,356.983337 162.996506,356.983337 171.611542,357.050049 
	C171.888702,357.322144 171.744034,357.772461 171.528687,357.809296 
	C164.000961,359.096039 164.015366,359.090576 163.992249,366.786072 
	C163.983353,369.743866 163.886810,372.701385 163.444122,375.868835 
z"/>
<path fill="#86A0D5" opacity="1.000000" stroke="none" 
	d="
M432.332825,253.140350 
	C423.713837,253.376541 414.644165,253.570923 405.284119,253.457672 
	C413.956512,253.132874 422.919312,253.115707 432.332825,253.140350 
z"/>
<path fill="#ECF1FF" opacity="1.000000" stroke="none" 
	d="
M154.248093,336.395569 
	C163.168610,335.947205 172.188080,335.929962 181.689453,335.857483 
	C182.171356,335.802246 182.203522,335.860291 182.126038,336.199402 
	C182.023804,336.746582 181.999054,336.954590 181.974319,337.162628 
	C172.765228,337.050629 163.556152,336.938660 154.248093,336.395569 
z"/>
<path fill="#708ECD" opacity="1.000000" stroke="none" 
	d="
M416.867310,323.585785 
	C408.582733,323.892548 400.092682,323.808777 391.296570,323.436340 
	C399.547638,323.163544 408.104736,323.179382 416.867310,323.585785 
z"/>
<path fill="#ECF1FF" opacity="1.000000" stroke="none" 
	d="
M396.462708,336.916565 
	C404.074158,336.565735 412.151825,336.278259 420.711975,336.006348 
	C417.882874,336.345734 414.576965,336.842712 411.258301,336.952087 
	C406.486725,337.109344 401.705872,336.984436 396.462708,336.916565 
z"/>
<path fill="#DFE6F5" opacity="1.000000" stroke="none" 
	d="
M391.290375,364.324280 
	C391.110687,356.715332 391.258789,349.222076 391.629944,341.384674 
	C391.907135,348.360474 391.961273,355.680420 392.049438,363.461853 
	C391.928345,364.095581 391.773254,364.267761 391.290375,364.324280 
z"/>
<path fill="#ECF1FF" opacity="1.000000" stroke="none" 
	d="
M101.238182,336.382263 
	C107.865829,336.106140 114.587982,336.264008 121.664841,336.638062 
	C115.123932,336.841583 108.228310,336.828918 101.238182,336.382263 
z"/>
<path fill="#ECF1FF" opacity="1.000000" stroke="none" 
	d="
M301.414246,337.071289 
	C306.024414,336.763947 311.106079,336.390747 316.663239,336.026245 
	C312.054382,336.358459 306.970062,336.681946 301.414246,337.071289 
z"/>
<path fill="#CFDEFF" opacity="1.000000" stroke="none" 
	d="
M193.062271,368.602295 
	C191.702682,366.864655 190.296204,364.761627 188.974030,362.285706 
	C190.377335,364.020813 191.696350,366.128876 193.062271,368.602295 
z"/>
<path fill="#C4D6FF" opacity="1.000000" stroke="none" 
	d="
M181.967194,337.557922 
	C181.999054,336.954590 182.023804,336.746582 182.115692,336.230957 
	C182.286575,337.749542 182.390305,339.575684 182.236252,341.647034 
	C181.972336,340.579224 181.966202,339.266205 181.967194,337.557922 
z"/>
<path fill="#CFDEFF" opacity="1.000000" stroke="none" 
	d="
M191.022003,328.686066 
	C190.786652,328.848328 190.480057,328.729187 190.058441,328.380493 
	C190.279175,328.235565 190.614960,328.320099 191.022003,328.686066 
z"/>
<path fill="#DFE6F5" opacity="1.000000" stroke="none" 
	d="
M87.923592,327.751617 
	C87.612549,327.909210 87.387108,327.725372 87.083099,327.307831 
	C87.300011,327.234467 87.634895,327.346527 87.923592,327.751617 
z"/>
<path fill="#1546AD" opacity="1.000000" stroke="none" 
	d="
M35.011879,299.164154 
	C35.358219,298.927277 35.560394,299.086853 35.671768,299.615295 
	C35.347649,299.891449 35.109898,299.750275 35.011879,299.164154 
z"/>
<path fill="#DFE6F5" opacity="1.000000" stroke="none" 
	d="
M85.073303,326.683868 
	C84.972992,326.960175 84.780060,326.975067 84.297119,326.992767 
	C84.001930,326.812592 83.996750,326.629669 84.022705,326.174530 
	C84.362778,326.075745 84.671730,326.249115 85.073303,326.683868 
z"/>
<path fill="#ECF1FF" opacity="1.000000" stroke="none" 
	d="
M122.875603,337.233551 
	C123.091148,337.011169 123.380074,337.005859 124.103470,337.015869 
	C124.216003,337.298584 123.894066,337.566010 123.259293,337.871185 
	C122.946465,337.908966 122.948990,337.450653 122.875603,337.233551 
z"/>
<path fill="#BDCFF8" opacity="1.000000" stroke="none" 
	d="
M392.970764,364.674500 
	C392.577393,364.794983 392.149780,364.654358 391.889465,364.205231 
	C392.350006,364.068970 392.643280,364.241211 392.970764,364.674500 
z"/>
<path fill="#000000" opacity="1.000000" stroke="none" 
	d="
M242.932770,400.633575 
	C242.225662,404.199554 239.362915,404.852753 237.320801,404.162292 
	C235.836990,403.660614 234.294144,400.851379 234.319901,399.093628 
	C234.343689,397.468689 236.082123,395.238251 237.662186,394.401703 
	C240.685745,392.800934 242.763809,395.242798 242.932770,400.633575 
z"/>
<path fill="#000000" opacity="1.000000" stroke="none" 
	d="
M69.951385,399.787170 
	C68.520218,403.088745 66.762611,406.207153 63.050976,404.256165 
	C60.159218,402.736115 58.466801,399.674469 61.001736,396.414337 
	C61.919376,395.234161 64.445457,393.772888 65.082649,394.192749 
	C67.020599,395.469666 68.394989,397.601898 69.951385,399.787170 
z"/>
</svg>