<?xml version="1.0" encoding="utf-8"?>
<!-- Generator: Adobe Illustrator 27.5.0, SVG Export Plug-In . SVG Version: 6.00 Build 0)  -->
<svg version="1.1" xmlns="http://www.w3.org/2000/svg" xmlns:xlink="http://www.w3.org/1999/xlink" x="0px" y="0px"
	 viewBox="0 0 500 500" style="enable-background:new 0 0 500 500;" xml:space="preserve">
<g id="Background_Complete">
	<g>
		<rect y="382.398" style="fill:#EBEBEB;" width="500" height="0.25"/>
		<rect x="416.779" y="398.494" style="fill:#EBEBEB;" width="33.122" height="0.25"/>
		<rect x="322.527" y="401.208" style="fill:#EBEBEB;" width="8.693" height="0.25"/>
		<rect x="396.586" y="389.208" style="fill:#EBEBEB;" width="19.192" height="0.25"/>
		<rect x="52.459" y="390.888" style="fill:#EBEBEB;" width="43.193" height="0.25"/>
		<rect x="104.556" y="390.888" style="fill:#EBEBEB;" width="6.333" height="0.25"/>
		<rect x="131.471" y="395.111" style="fill:#EBEBEB;" width="93.676" height="0.25"/>
		<path style="fill:#EBEBEB;" d="M237.014,337.8H43.915c-3.147,0-5.708-2.561-5.708-5.708V60.66c0-3.147,2.561-5.708,5.708-5.708
			h193.099c3.146,0,5.707,2.561,5.707,5.708v271.432C242.721,335.239,240.16,337.8,237.014,337.8z M43.915,55.203
			c-3.01,0-5.458,2.448-5.458,5.458v271.432c0,3.01,2.448,5.458,5.458,5.458h193.099c3.009,0,5.457-2.448,5.457-5.458V60.66
			c0-3.009-2.448-5.458-5.457-5.458H43.915z"/>
		<path style="fill:#EBEBEB;" d="M453.31,337.8H260.212c-3.147,0-5.707-2.561-5.707-5.708V60.66c0-3.147,2.561-5.708,5.707-5.708
			H453.31c3.148,0,5.708,2.561,5.708,5.708v271.432C459.019,335.239,456.458,337.8,453.31,337.8z M260.212,55.203
			c-3.009,0-5.457,2.448-5.457,5.458v271.432c0,3.01,2.448,5.458,5.457,5.458H453.31c3.01,0,5.458-2.448,5.458-5.458V60.66
			c0-3.009-2.448-5.458-5.458-5.458H260.212z"/>
	</g>
	<g>
		<g>
			<g>
				<rect x="344.417" y="111.701" style="fill:#EBEBEB;" width="105.484" height="270.609"/>
				<rect x="431.323" y="111.701" style="fill:#F5F5F5;" width="18.578" height="270.609"/>
			</g>
			<g>
				<rect x="353.259" y="123.09" style="fill:#E6E6E6;" width="14.472" height="26.446"/>
				<rect x="371.229" y="123.09" style="fill:#E6E6E6;" width="14.472" height="26.446"/>
				<rect x="389.199" y="123.09" style="fill:#E6E6E6;" width="14.472" height="26.446"/>
				<rect x="407.169" y="123.09" style="fill:#E6E6E6;" width="14.472" height="26.446"/>
			</g>
			<g>
				<rect x="353.259" y="157.271" style="fill:#E6E6E6;" width="14.472" height="26.446"/>
				<rect x="371.229" y="157.271" style="fill:#E6E6E6;" width="14.472" height="26.446"/>
				<rect x="389.199" y="157.271" style="fill:#E6E6E6;" width="14.472" height="26.446"/>
				<rect x="407.169" y="157.271" style="fill:#E6E6E6;" width="14.472" height="26.446"/>
			</g>
			<g>
				<rect x="353.259" y="191.453" style="fill:#E6E6E6;" width="14.472" height="26.446"/>
				<rect x="371.229" y="191.453" style="fill:#E6E6E6;" width="14.472" height="26.446"/>
				<rect x="389.199" y="191.453" style="fill:#E6E6E6;" width="14.472" height="26.446"/>
				<rect x="407.169" y="191.453" style="fill:#E6E6E6;" width="14.472" height="26.446"/>
			</g>
			<g>
				<rect x="353.259" y="225.635" style="fill:#E6E6E6;" width="14.472" height="26.446"/>
				<rect x="371.229" y="225.635" style="fill:#E6E6E6;" width="14.472" height="26.446"/>
				<rect x="389.199" y="225.635" style="fill:#E6E6E6;" width="14.472" height="26.446"/>
				<rect x="407.169" y="225.635" style="fill:#E6E6E6;" width="14.472" height="26.446"/>
			</g>
			<g>
				<rect x="353.259" y="259.817" style="fill:#E6E6E6;" width="14.472" height="26.446"/>
				<rect x="371.229" y="259.817" style="fill:#E6E6E6;" width="14.472" height="26.446"/>
				<rect x="389.199" y="259.817" style="fill:#E6E6E6;" width="14.472" height="26.446"/>
				<rect x="407.169" y="259.817" style="fill:#E6E6E6;" width="14.472" height="26.446"/>
			</g>
			<g>
				<rect x="353.259" y="293.999" style="fill:#E6E6E6;" width="14.472" height="26.446"/>
				<rect x="371.229" y="293.999" style="fill:#E6E6E6;" width="14.472" height="26.446"/>
				<rect x="389.199" y="293.999" style="fill:#E6E6E6;" width="14.472" height="26.446"/>
				<rect x="407.169" y="293.999" style="fill:#E6E6E6;" width="14.472" height="26.446"/>
			</g>
		</g>
		<g>
			<rect x="121.608" y="157.51" style="fill:#F0F0F0;" width="168.051" height="223.813"/>
			<rect x="125.176" y="163.117" style="fill:#E6E6E6;" width="133.984" height="30.301"/>
			<rect x="125.176" y="199.385" style="fill:#E6E6E6;" width="133.984" height="30.301"/>
			<rect x="125.176" y="235.654" style="fill:#E6E6E6;" width="133.984" height="30.301"/>
			<rect x="125.176" y="271.922" style="fill:#E6E6E6;" width="133.984" height="30.301"/>
			<rect x="125.176" y="308.19" style="fill:#E6E6E6;" width="133.984" height="30.301"/>
			<rect x="125.176" y="344.458" style="fill:#E6E6E6;" width="133.984" height="30.301"/>
			<rect x="266.041" y="157.51" style="fill:#F5F5F5;" width="23.618" height="223.813"/>
			<g>
				<rect x="136.966" y="173.258" style="fill:#EBEBEB;" width="14.457" height="20.159"/>
				<rect x="156.202" y="173.258" style="fill:#EBEBEB;" width="14.457" height="20.159"/>
				<rect x="175.438" y="173.258" style="fill:#EBEBEB;" width="14.456" height="20.159"/>
				<rect x="194.674" y="173.258" style="fill:#EBEBEB;" width="14.456" height="20.159"/>
				<rect x="213.91" y="173.258" style="fill:#EBEBEB;" width="14.457" height="20.159"/>
				<rect x="233.146" y="173.258" style="fill:#EBEBEB;" width="14.457" height="20.159"/>
			</g>
			<g>
				<rect x="136.379" y="209.459" style="fill:#EBEBEB;" width="14.457" height="20.159"/>
				<rect x="155.615" y="209.459" style="fill:#EBEBEB;" width="14.457" height="20.159"/>
				<rect x="174.851" y="209.459" style="fill:#EBEBEB;" width="14.456" height="20.159"/>
				<rect x="194.087" y="209.459" style="fill:#EBEBEB;" width="14.457" height="20.159"/>
				<rect x="213.323" y="209.459" style="fill:#EBEBEB;" width="14.457" height="20.159"/>
				<rect x="232.559" y="209.459" style="fill:#EBEBEB;" width="14.457" height="20.159"/>
			</g>
			<g>
				<rect x="135.792" y="245.661" style="fill:#EBEBEB;" width="14.457" height="20.159"/>
				<rect x="155.028" y="245.661" style="fill:#EBEBEB;" width="14.456" height="20.159"/>
				<rect x="174.264" y="245.661" style="fill:#EBEBEB;" width="14.456" height="20.159"/>
				<rect x="193.5" y="245.661" style="fill:#EBEBEB;" width="14.457" height="20.159"/>
				<rect x="212.736" y="245.661" style="fill:#EBEBEB;" width="14.457" height="20.159"/>
				<rect x="231.972" y="245.661" style="fill:#EBEBEB;" width="14.457" height="20.159"/>
			</g>
			<g>
				<rect x="135.204" y="281.862" style="fill:#EBEBEB;" width="14.457" height="20.159"/>
				<rect x="154.441" y="281.862" style="fill:#EBEBEB;" width="14.456" height="20.159"/>
				<rect x="173.676" y="281.862" style="fill:#EBEBEB;" width="14.456" height="20.159"/>
				<rect x="192.913" y="281.862" style="fill:#EBEBEB;" width="14.457" height="20.159"/>
				<rect x="212.148" y="281.862" style="fill:#EBEBEB;" width="14.457" height="20.159"/>
				<rect x="231.385" y="281.862" style="fill:#EBEBEB;" width="14.457" height="20.159"/>
			</g>
			<g>
				<rect x="134.617" y="318.063" style="fill:#EBEBEB;" width="14.457" height="20.159"/>
				<rect x="153.853" y="318.063" style="fill:#EBEBEB;" width="14.456" height="20.159"/>
				<rect x="173.089" y="318.063" style="fill:#EBEBEB;" width="14.457" height="20.159"/>
				<rect x="192.325" y="318.063" style="fill:#EBEBEB;" width="14.457" height="20.159"/>
				<rect x="211.561" y="318.063" style="fill:#EBEBEB;" width="14.457" height="20.159"/>
				<rect x="230.797" y="318.063" style="fill:#EBEBEB;" width="14.457" height="20.159"/>
			</g>
			<g>
				<rect x="134.03" y="354.264" style="fill:#EBEBEB;" width="14.456" height="20.159"/>
				<rect x="153.266" y="354.264" style="fill:#EBEBEB;" width="14.456" height="20.159"/>
				<rect x="172.502" y="354.264" style="fill:#EBEBEB;" width="14.457" height="20.159"/>
				<rect x="191.738" y="354.264" style="fill:#EBEBEB;" width="14.457" height="20.159"/>
				<rect x="210.974" y="354.264" style="fill:#EBEBEB;" width="14.457" height="20.159"/>
				<rect x="230.21" y="354.264" style="fill:#EBEBEB;" width="14.457" height="20.159"/>
			</g>
		</g>
		<g>
			<rect x="52.459" y="149.58" style="fill:#F0F0F0;" width="168.051" height="231.743"/>
			<rect x="56.027" y="155.386" style="fill:#E6E6E6;" width="133.984" height="31.374"/>
			<rect x="56.027" y="192.939" style="fill:#E6E6E6;" width="133.984" height="31.374"/>
			<rect x="56.027" y="230.492" style="fill:#E6E6E6;" width="133.984" height="31.374"/>
			<rect x="56.027" y="268.046" style="fill:#E6E6E6;" width="133.984" height="31.374"/>
			<rect x="56.027" y="305.599" style="fill:#E6E6E6;" width="133.984" height="31.374"/>
			<rect x="56.027" y="343.152" style="fill:#E6E6E6;" width="133.984" height="31.374"/>
			<rect x="196.892" y="149.58" style="fill:#F5F5F5;" width="23.618" height="231.743"/>
			<g>
				<rect x="67.817" y="165.886" style="fill:#EBEBEB;" width="14.456" height="20.874"/>
				<rect x="87.053" y="165.886" style="fill:#EBEBEB;" width="14.456" height="20.874"/>
				<rect x="106.289" y="165.886" style="fill:#EBEBEB;" width="14.457" height="20.874"/>
				<rect x="125.525" y="165.886" style="fill:#EBEBEB;" width="14.457" height="20.874"/>
				<rect x="144.761" y="165.886" style="fill:#EBEBEB;" width="14.457" height="20.874"/>
				<rect x="163.997" y="165.886" style="fill:#EBEBEB;" width="14.457" height="20.874"/>
			</g>
			<g>
				<rect x="67.23" y="203.37" style="fill:#EBEBEB;" width="14.456" height="20.874"/>
				<rect x="86.466" y="203.37" style="fill:#EBEBEB;" width="14.456" height="20.874"/>
				<rect x="105.702" y="203.37" style="fill:#EBEBEB;" width="14.457" height="20.874"/>
				<rect x="124.938" y="203.37" style="fill:#EBEBEB;" width="14.457" height="20.874"/>
				<rect x="144.174" y="203.37" style="fill:#EBEBEB;" width="14.457" height="20.874"/>
				<rect x="163.41" y="203.37" style="fill:#EBEBEB;" width="14.457" height="20.874"/>
			</g>
			<g>
				<rect x="66.643" y="240.854" style="fill:#EBEBEB;" width="14.456" height="20.874"/>
				<rect x="85.879" y="240.854" style="fill:#EBEBEB;" width="14.457" height="20.874"/>
				<rect x="105.115" y="240.854" style="fill:#EBEBEB;" width="14.457" height="20.874"/>
				<rect x="124.351" y="240.854" style="fill:#EBEBEB;" width="14.457" height="20.874"/>
				<rect x="143.587" y="240.854" style="fill:#EBEBEB;" width="14.457" height="20.874"/>
				<rect x="162.823" y="240.854" style="fill:#EBEBEB;" width="14.456" height="20.874"/>
			</g>
			<g>
				<rect x="66.055" y="278.338" style="fill:#EBEBEB;" width="14.456" height="20.874"/>
				<rect x="85.291" y="278.338" style="fill:#EBEBEB;" width="14.457" height="20.874"/>
				<rect x="104.527" y="278.338" style="fill:#EBEBEB;" width="14.457" height="20.874"/>
				<rect x="123.763" y="278.338" style="fill:#EBEBEB;" width="14.457" height="20.874"/>
				<rect x="142.999" y="278.338" style="fill:#EBEBEB;" width="14.457" height="20.874"/>
				<rect x="162.236" y="278.338" style="fill:#EBEBEB;" width="14.456" height="20.874"/>
			</g>
			<g>
				<rect x="65.468" y="315.822" style="fill:#EBEBEB;" width="14.456" height="20.874"/>
				<rect x="84.704" y="315.822" style="fill:#EBEBEB;" width="14.457" height="20.874"/>
				<rect x="103.94" y="315.822" style="fill:#EBEBEB;" width="14.457" height="20.874"/>
				<rect x="123.176" y="315.822" style="fill:#EBEBEB;" width="14.457" height="20.874"/>
				<rect x="142.412" y="315.822" style="fill:#EBEBEB;" width="14.457" height="20.874"/>
				<rect x="161.648" y="315.822" style="fill:#EBEBEB;" width="14.456" height="20.874"/>
			</g>
			<g>
				<rect x="64.881" y="353.306" style="fill:#EBEBEB;" width="14.457" height="20.874"/>
				<rect x="84.117" y="353.306" style="fill:#EBEBEB;" width="14.457" height="20.874"/>
				<rect x="103.353" y="353.306" style="fill:#EBEBEB;" width="14.457" height="20.874"/>
				<rect x="122.589" y="353.306" style="fill:#EBEBEB;" width="14.457" height="20.874"/>
				<rect x="141.825" y="353.306" style="fill:#EBEBEB;" width="14.456" height="20.874"/>
				<rect x="161.061" y="353.306" style="fill:#EBEBEB;" width="14.456" height="20.874"/>
			</g>
		</g>
		<g>
			<rect x="103.94" y="55.203" style="fill:#F5F5F5;" width="3.782" height="27.892"/>
			<rect x="198.94" y="55.203" style="fill:#F5F5F5;" width="3.782" height="27.892"/>
			<rect x="88.345" y="77.721" style="fill:#EBEBEB;" width="127.281" height="40.526"/>
			<rect x="210.323" y="77.721" style="fill:#E6E6E6;" width="5.304" height="40.526"/>
		</g>
	</g>
</g>
<g id="Background_Simple" style="display:none;">
	<g style="display:inline;">
		<path style="fill:#407BFF;" d="M155.687,93.407c1.778-2.06,3.656-4.031,5.625-5.899c18.246-17.316,43.467-26.268,68.596-27.404
			c45.516-2.058,91.316,21.918,115.561,60.495c18.313,29.139,24.969,65.395,48.017,90.953c7.619,8.449,16.774,15.397,24.476,23.771
			c20.128,21.886,20.11,55.645-0.253,77.519c-11.696,12.564-27.589,20.389-43.673,26.383
			c-59.455,22.158-124.656,22.517-188.002,18.875c-17.948-1.032-36.13-2.413-53.091-8.374
			c-16.961-5.961-32.815-17.095-40.761-33.222s-6.282-37.547,6.76-49.919c13.378-12.692,35.452-14.105,46.685-28.73
			c8.73-11.365,8.093-27.427,4.179-41.214c-3.913-13.786-10.655-26.783-13.021-40.917C133.08,133.593,140.984,110.44,155.687,93.407
			z"/>
		<path style="opacity:0.9;fill:#FFFFFF;enable-background:new    ;" d="M155.687,93.407c1.778-2.06,3.656-4.031,5.625-5.899
			c18.246-17.316,43.467-26.268,68.596-27.404c45.516-2.058,91.316,21.918,115.561,60.495
			c18.313,29.139,24.969,65.395,48.017,90.953c7.619,8.449,16.774,15.397,24.476,23.771c20.128,21.886,20.11,55.645-0.253,77.519
			c-11.696,12.564-27.589,20.389-43.673,26.383c-59.455,22.158-124.656,22.517-188.002,18.875
			c-17.948-1.032-36.13-2.413-53.091-8.374c-16.961-5.961-32.815-17.095-40.761-33.222s-6.282-37.547,6.76-49.919
			c13.378-12.692,35.452-14.105,46.685-28.73c8.73-11.365,8.093-27.427,4.179-41.214c-3.913-13.786-10.655-26.783-13.021-40.917
			C133.08,133.593,140.984,110.44,155.687,93.407z"/>
	</g>
</g>
<g id="Shadow_1_">
	<ellipse id="_x3C_Path_x3E__359_" style="fill:#F5F5F5;" cx="250" cy="416.238" rx="193.889" ry="11.323"/>
</g>
<g id="Plant">
	<g>
		<path style="fill:#407BFF;" d="M81.481,388.475c0,0-5.649-12.326,0.805-24.477c6.455-12.151,8.326-15.013,4.211-17.502
			c-4.115-2.489-6.002,9.72-6.002,9.72s-3.469-8.4-0.605-17.19c2.864-8.791,4.66-23.108,0.749-24.644
			c-3.911-1.536-0.747,17.861-4.14,24.473c0,0-2.85-7.361-3.319-14.421c-0.469-7.061,0.264-18.335-2.825-21.227
			c-3.088-2.892-5.067-0.891-2.032,14.69c3.035,15.582,3.013,28.247,3.013,28.247s-6.703-20.439-11.203-21.035
			c-4.499-0.596-4.493,6.023-0.642,11.764c3.851,5.741,11.278,16.026,12.496,21.319c0,0-7.358-15.381-13.977-10.667
			c-6.619,4.714,5.761,14.005,11.279,17.362c5.518,3.357,9.35,24.401,9.35,24.401L81.481,388.475z"/>
		<path style="opacity:0.6;fill:#FFFFFF;enable-background:new    ;" d="M81.481,388.475c0,0-5.649-12.326,0.805-24.477
			c6.455-12.151,8.326-15.013,4.211-17.502c-4.115-2.489-6.002,9.72-6.002,9.72s-3.469-8.4-0.605-17.19
			c2.864-8.791,4.66-23.108,0.749-24.644c-3.911-1.536-0.747,17.861-4.14,24.473c0,0-2.85-7.361-3.319-14.421
			c-0.469-7.061,0.264-18.335-2.825-21.227c-3.088-2.892-5.067-0.891-2.032,14.69c3.035,15.582,3.013,28.247,3.013,28.247
			s-6.703-20.439-11.203-21.035c-4.499-0.596-4.493,6.023-0.642,11.764c3.851,5.741,11.278,16.026,12.496,21.319
			c0,0-7.358-15.381-13.977-10.667c-6.619,4.714,5.761,14.005,11.279,17.362c5.518,3.357,9.35,24.401,9.35,24.401L81.481,388.475z"
			/>
		<path style="fill:#407BFF;" d="M77.021,393.53c0,0,5.501-12.409-1.099-24.462c-6.6-12.053-8.505-14.887-4.421-17.438
			c4.084-2.551,6.118,9.63,6.118,9.63s3.367-8.451,0.398-17.198s-4.936-23.037-1.044-24.631c3.892-1.594,0.961,17.849,4.433,24.409
			c0,0,2.762-7.402,3.146-14.469c0.384-7.067-0.483-18.329,2.57-21.267c3.053-2.938,5.056-0.967,2.208,14.659
			c-2.848,15.625-2.674,28.29-2.674,28.29s6.458-20.537,10.949-21.201c4.492-0.663,4.565,5.955,0.783,11.754
			c-3.782,5.798-11.085,16.193-12.239,21.503c0,0,7.173-15.49,13.848-10.875c6.675,4.615-5.593,14.09-11.07,17.529
			c-5.477,3.439-9.056,24.538-9.056,24.538L77.021,393.53z"/>
		<path style="opacity:0.7;fill:#FFFFFF;enable-background:new    ;" d="M77.021,393.53c0,0,5.501-12.409-1.099-24.462
			c-6.6-12.053-8.505-14.887-4.421-17.438c4.084-2.551,6.118,9.63,6.118,9.63s3.367-8.451,0.398-17.198s-4.936-23.037-1.044-24.631
			c3.892-1.594,0.961,17.849,4.433,24.409c0,0,2.762-7.402,3.146-14.469c0.384-7.067-0.483-18.329,2.57-21.267
			c3.053-2.938,5.056-0.967,2.208,14.659c-2.848,15.625-2.674,28.29-2.674,28.29s6.458-20.537,10.949-21.201
			c4.492-0.663,4.565,5.955,0.783,11.754c-3.782,5.798-11.085,16.193-12.239,21.503c0,0,7.173-15.49,13.848-10.875
			c6.675,4.615-5.593,14.09-11.07,17.529c-5.477,3.439-9.056,24.538-9.056,24.538L77.021,393.53z"/>
		<g>
			<polygon style="fill:#407BFF;" points="102.393,384.685 56.95,384.685 60.628,417.204 98.715,417.204 			"/>
		</g>
	</g>
</g>
<g id="Character_2">
	<g>
		<polygon style="fill:#263238;" points="259.505,239.615 194.846,239.615 194.846,191.542 235.505,191.542 239.198,211.491 
			259.505,219.732 		"/>
		<polygon style="opacity:0.1;fill:#FFFFFF;enable-background:new    ;" points="259.505,239.615 194.846,239.615 194.846,191.542 
			235.505,191.542 239.198,211.491 259.505,219.732 		"/>
		<polygon style="opacity:0.1;fill:#FFFFFF;enable-background:new    ;" points="229.505,239.615 192.846,239.615 192.846,191.542 
			205.505,191.542 209.198,211.491 229.505,219.732 		"/>
		<polygon style="opacity:0.2;enable-background:new    ;" points="234.271,200.714 233.178,194.801 209.817,194.801 
			210.91,200.714 		"/>
		<polygon style="opacity:0.2;enable-background:new    ;" points="211.397,203.352 212.176,207.571 235.54,207.571 
			234.759,203.352 		"/>
		<polygon style="opacity:0.3;fill:#FFFFFF;enable-background:new    ;" points="209.198,211.491 239.198,211.491 259.505,219.732 
			229.505,219.732 		"/>
	</g>
	<g id="_x3C_Group_x3E__79_">
		<g>
			<path style="fill:#407BFF;" d="M307.885,155.717c6.325,3.224,4.512,18.721-11.647,47.667l-11.073-8.96
				c0,0,3.617-13.062,10.165-26.163C301.878,155.16,307.885,155.717,307.885,155.717z"/>
			<path style="opacity:0.4;fill:#FFFFFF;enable-background:new    ;" d="M307.885,155.717c6.325,3.224,4.512,18.721-11.647,47.667
				l-11.073-8.96c0,0,3.617-13.062,10.165-26.163C301.878,155.16,307.885,155.717,307.885,155.717z"/>
		</g>
		<path style="fill:#263238;" d="M362.168,225.381h-43.035c-4.092,22.344-16.9,101.414-7.711,171.865l14.569-1.807
			c0,0-1.349-93.527,11.515-128.104c1.479,18.505,3.236,38.194,4.762,48.67c3.744,25.786,11.758,82.139,11.758,82.139h14.832
			c0,0-3.032-53.94-4.435-79.283C362.889,291.351,362.227,231.032,362.168,225.381z"/>
		<g>
			<path style="fill:#407BFF;" d="M304.809,155.943c4.45-1.039,27.918-6.263,46.861-5.527c0,0,6.086,62.415,11.8,87.782
				l-49.525,8.683c0,0-11.127-62.105-9.919-89.999C304.045,156.425,304.364,156.047,304.809,155.943z"/>
			<path style="opacity:0.6;fill:#FFFFFF;enable-background:new    ;" d="M304.809,155.943c4.45-1.039,27.918-6.263,46.861-5.527
				c0,0,6.086,62.415,11.8,87.782l-49.525,8.683c0,0-11.127-62.105-9.919-89.999C304.045,156.425,304.364,156.047,304.809,155.943z"
				/>
		</g>
		<g>
			<path style="fill:#407BFF;" d="M347.253,149.58c0,0-5.675,23.841,9.829,44.095l3.825,25.428l4.452,21.057l-24.642,6.498
				l-8.826-19.768l-0.911,21.827l-19.613,2.859l-2.128-24.958c0,0-3.371-19.778-4.236-30.635c0,0-2.948-25.12,1.637-41.142
				l6.454-1.389c0,0,0.351,15.306,10.153,27.588c0,0,9.301-24.509,17.74-31.449L347.253,149.58z"/>
			<path style="opacity:0.2;enable-background:new    ;" d="M347.253,149.58c0,0-5.675,23.841,9.829,44.095l3.825,25.428
				l4.452,21.057l-24.642,6.498l-8.826-19.768l-0.911,21.827l-19.613,2.859l-2.128-24.958c0,0-3.371-19.778-4.236-30.635
				c0,0-2.948-25.12,1.637-41.142l6.454-1.389c0,0,0.351,15.306,10.153,27.588c0,0,9.301-24.509,17.74-31.449L347.253,149.58z"/>
		</g>
		<path style="fill:#EBB376;" d="M287.283,189.723c0,0-2.941,8.046-5.189,8.31c-2.248,0.264-16.883-24.278-16.883-24.278
			s-1.684-4.877-4.453-6.196c-2.694-1.283-10.983-5.975-13.116-4.941c-2.133,1.034-1.037,9.161-0.99,11.007
			c0.041,1.612,7.011,3.999,9.095,4.398c2.365,0.452,4.064-0.365,4.064-0.365s11.727,28.881,19.343,33.944
			c7.616,5.062,19.064-12.152,19.064-12.152L287.283,189.723z"/>
		<g>
			<polygon style="fill:#407BFF;" points="283.269,193.824 285.353,192.154 298.003,202.852 295.974,206.481 			"/>
			<polygon style="opacity:0.3;fill:#FFFFFF;enable-background:new    ;" points="283.269,193.824 285.353,192.154 298.003,202.852 
				295.974,206.481 			"/>
		</g>
		<polygon style="fill:#EBB376;" points="324.424,409.521 316.057,410.405 314.486,392.358 322.854,391.474 		"/>
		<polygon style="fill:#EBB376;" points="366.176,408.911 358.069,408.911 357.398,390.129 365.516,390.129 		"/>
		<path style="fill:#263238;" d="M356.944,407.972h9.85c0.332,0.002,0.619,0.233,0.691,0.557l1.599,7.22
			c0.137,0.646-0.276,1.281-0.923,1.418c-0.087,0.018-0.175,0.027-0.263,0.026c-3.187-0.052-5.508-0.248-9.51-0.248
			c-2.465,0-9.902,0.258-13.306,0.258c-3.404,0-3.847-3.363-2.455-3.672c6.25-1.362,10.954-3.249,12.955-5.044
			C355.954,408.148,356.441,407.963,356.944,407.972z"/>
		<path style="fill:#407BFF;" d="M354.263,409.396c-0.551,0.044-1.1-0.102-1.557-0.413c-0.304-0.251-0.456-0.641-0.402-1.031
			c-0.006-0.228,0.124-0.439,0.33-0.536c0.897-0.464,3.517,1.145,3.806,1.331c0.068,0.035,0.106,0.11,0.093,0.186
			c-0.01,0.079-0.067,0.145-0.144,0.165C355.692,409.275,354.98,409.375,354.263,409.396z M353.056,407.714
			c-0.086-0.007-0.172,0.011-0.248,0.052c-0.051,0-0.113,0.072-0.124,0.227c-0.033,0.259,0.064,0.517,0.258,0.691
			c0.91,0.412,1.942,0.464,2.888,0.144C354.985,408.283,354.043,407.905,353.056,407.714z"/>
		<path style="fill:#407BFF;" d="M356.336,409.107h-0.093c-0.836-0.454-2.455-2.238-2.29-3.094c0.059-0.295,0.318-0.506,0.619-0.505
			c0.294-0.039,0.591,0.051,0.815,0.247c0.939,0.763,1.135,3.094,1.145,3.208c0.001,0.07-0.034,0.137-0.093,0.175
			C356.402,409.138,356.366,409.128,356.336,409.107z M354.706,405.817h-0.093c-0.247,0-0.268,0.144-0.279,0.196
			c-0.103,0.526,0.928,1.877,1.764,2.506c-0.054-0.924-0.389-1.809-0.959-2.537C355.02,405.876,354.866,405.817,354.706,405.817z"/>
		<path style="fill:#263238;" d="M315.171,407.714h9.85c0.332,0.002,0.619,0.233,0.691,0.557l1.599,7.22
			c0.137,0.646-0.276,1.281-0.923,1.418c-0.087,0.018-0.175,0.027-0.263,0.026c-3.187-0.051-5.508-0.247-9.51-0.247
			c-2.465,0-9.902,0.258-13.305,0.258c-3.404,0-3.847-3.362-2.455-3.672c6.251-1.361,10.954-3.249,12.955-5.044
			C314.181,407.89,314.668,407.705,315.171,407.714z"/>
		<path style="fill:#407BFF;" d="M312.49,409.138c-0.551,0.044-1.1-0.102-1.557-0.413c-0.304-0.251-0.456-0.641-0.402-1.031
			c-0.006-0.228,0.124-0.438,0.33-0.536c0.897-0.464,3.517,1.145,3.806,1.331c0.068,0.035,0.106,0.11,0.093,0.186
			c-0.01,0.079-0.067,0.145-0.144,0.165C313.919,409.017,313.207,409.117,312.49,409.138z M311.283,407.457
			c-0.086-0.007-0.172,0.011-0.248,0.051c-0.052,0-0.113,0.072-0.124,0.227c-0.033,0.259,0.064,0.517,0.258,0.691
			c0.91,0.412,1.942,0.464,2.888,0.144C313.212,408.025,312.27,407.647,311.283,407.457z"/>
		<path style="fill:#407BFF;" d="M314.563,408.849h-0.093c-0.835-0.454-2.455-2.238-2.29-3.094c0.059-0.295,0.318-0.506,0.619-0.505
			c0.294-0.039,0.591,0.052,0.815,0.248c0.939,0.763,1.135,3.094,1.145,3.208c0.001,0.071-0.034,0.137-0.093,0.176
			C314.629,408.881,314.593,408.87,314.563,408.849z M312.933,405.559h-0.093c-0.247,0-0.268,0.144-0.279,0.196
			c-0.103,0.526,0.928,1.877,1.764,2.506c-0.054-0.924-0.389-1.809-0.959-2.537C313.247,405.618,313.093,405.56,312.933,405.559z"/>
		<polygon style="opacity:0.2;enable-background:new    ;" points="322.854,391.474 314.486,392.358 315.303,401.666 
			323.671,400.782 		"/>
		<polygon style="opacity:0.2;enable-background:new    ;" points="365.516,390.139 357.398,390.139 357.749,399.824 
			365.866,399.824 		"/>
		<g>
			<polygon style="fill:#407BFF;" points="309.756,400.641 327.788,397.958 327.236,392.964 308.478,395.427 			"/>
			<polygon style="opacity:0.6;fill:#FFFFFF;enable-background:new    ;" points="309.756,400.641 327.788,397.958 327.236,392.964 
				308.478,395.427 			"/>
		</g>
		<g>
			<polygon style="fill:#407BFF;" points="352.241,398.266 369.734,398.266 369.734,393.037 351.581,392.697 			"/>
			<polygon style="opacity:0.6;fill:#FFFFFF;enable-background:new    ;" points="352.241,398.266 369.734,398.266 369.734,393.037 
				351.581,392.697 			"/>
		</g>
		<path style="opacity:0.2;enable-background:new    ;" d="M337.502,267.34c-1.898,5.095-3.476,11.459-4.807,18.617
			c-1.203-16.466,3.61-33.931,3.61-33.931L337.502,267.34z"/>
		<path style="fill:#EBB376;" d="M335.868,150.935c-3.122,4.329-12.866,5.033-12.866,5.033s-6.252-0.368-5.401-2.477
			c3.36-1.311,4.702-3.292,4.958-5.518c0.148-1.296-0.08-2.671-0.487-4.05c-0.206-0.726-0.475-1.449-0.762-2.158l9.873-11.144
			C330.859,136.666,331.207,147.588,335.868,150.935z"/>
		<path style="opacity:0.2;enable-background:new    ;" d="M329.644,136.701c1.021,7.122-4.342,10.28-7.084,11.271
			c0.148-1.296-0.08-2.671-0.487-4.05L329.644,136.701z"/>
		<g>
			<path style="fill:#263238;" d="M309.825,114.115c0,0-2.447,11.034,3.181,15.721c5.628,4.687,7.028-16.066,7.028-16.066
				L309.825,114.115z"/>
			<path style="fill:#EBB376;" d="M329.587,139.856c-3.15,3.933-7.905,4.698-11.883,3.137c-2.558-1-4.793-2.97-6.078-5.672
				c-0.173-0.353-0.323-0.725-0.463-1.106c-2.453-7.009-2.575-18.988,4.93-22.969c5.332-2.876,12-0.886,14.875,4.457
				c0.828,1.513,1.272,3.208,1.321,4.938C332.636,130.665,333.219,135.366,329.587,139.856z"/>
			<path style="fill:#263238;" d="M320.39,126.112c0.111,0.64-0.22,1.21-0.652,1.254c-0.432,0.044-0.822-0.454-0.892-1.102
				c-0.07-0.647,0.23-1.212,0.652-1.254C319.92,124.969,320.318,125.454,320.39,126.112z"/>
			<path style="fill:#263238;" d="M313.036,126.863c0.111,0.64-0.23,1.212-0.652,1.254c-0.422,0.042-0.822-0.454-0.892-1.101
				c-0.07-0.647,0.23-1.212,0.652-1.254C312.565,125.72,312.971,126.246,313.036,126.863z"/>
			<path style="fill:#D58745;" d="M315.405,126.944c-0.571,2.069-1.426,4.049-2.54,5.883c0.971,0.554,2.137,0.651,3.186,0.264
				L315.405,126.944z"/>
			<path style="fill:#263238;" d="M322.429,123.498c-0.139,0.034-0.286-0.008-0.386-0.111c-0.648-0.73-1.603-1.112-2.576-1.03
				c-0.207,0.037-0.405-0.102-0.442-0.31c-0.036-0.208,0.102-0.405,0.31-0.442c0,0,0.001,0,0.002,0
				c1.227-0.135,2.444,0.333,3.264,1.256c0.148,0.15,0.147,0.392-0.003,0.54c-0.002,0.002-0.004,0.004-0.007,0.006
				C322.542,123.445,322.487,123.476,322.429,123.498z"/>
			<path style="fill:#263238;" d="M309.616,124.65c-0.069,0.036-0.147,0.05-0.223,0.039c-0.199-0.069-0.304-0.287-0.235-0.486
				c0.001-0.003,0.002-0.005,0.003-0.008c0.398-1.173,1.343-2.078,2.531-2.427c0.205-0.047,0.41,0.081,0.458,0.286l0,0.001
				c0.042,0.205-0.084,0.406-0.287,0.458l0,0c-0.93,0.303-1.662,1.027-1.975,1.954C309.829,124.564,309.729,124.631,309.616,124.65z
				"/>
			<path style="fill:#263238;" d="M325.409,113.271l-0.24,3.558c1.193,0.555,1.963,1.825,1.504,3.247
				c-0.98,3.035,0.956,7.555,3.337,9.271c0,0,0.001-1.292,1.104-1.046c1.103,0.247,1.167,6.971-0.78,10.285
				c0,0,3.05-3.068,4.479-10.208c1.322-6.603,1.237-12.042-0.238-14.489L325.409,113.271z"/>
			<path style="fill:#EBB376;" d="M336.448,128.834c-0.702,1.898-2.128,3.441-3.965,4.289c-2.441,1.106-4.068-0.981-3.738-3.5
				c0.315-2.236,1.944-5.577,4.566-5.599C335.934,124.004,337.28,126.493,336.448,128.834z"/>
			<path style="fill:#263238;" d="M325.169,116.829c0,0-4.277-0.421-8.157,0.803c-3.88,1.225-7.11,0.29-7.11,0.29
				s-3.563-7.199,1.15-11.565c4.714-4.366,12.586-2.661,15.141-1.18c2.555,1.481-2.635,1.231-2.635,1.231s8.345,1.555,11.956,4.725
				c3.611,3.17,2.74,8.381,1.96,9.268c-0.78,0.886-1.402-1.063-1.402-1.063s-1.85,1.141-4.964,1.05
				C327.993,120.298,329.296,117.552,325.169,116.829z"/>
			<g>
				<path style="fill:#263238;" d="M316.534,135.706c0.644,0.94,1.436,2.773,1.436,2.773c0.179-0.042,0.358-0.084,0.535-0.135
					c2.414-0.628,3.326-1.716,3.605-2.733c0.151-0.556,0.105-1.096,0.012-1.522c-0.102-0.493-0.288-0.822-0.288-0.822
					c-1.081,1.097-3.286,1.855-4.48,2.211C316.854,135.633,316.534,135.706,316.534,135.706z"/>
				<path style="fill:#FFFFFF;" d="M317.353,135.479l0.445,0.807c2.272-0.597,3.791-1.322,4.324-2.196
					c-0.102-0.493-0.288-0.822-0.288-0.822C320.753,134.365,318.548,135.123,317.353,135.479z"/>
				<path style="fill:#DE5753;" d="M318.504,138.344c2.414-0.628,3.326-1.716,3.605-2.733c-0.814,0.246-1.769,0.632-2.542,1.228
					C318.974,137.293,318.668,137.834,318.504,138.344z"/>
			</g>
		</g>
		<g>
			<path style="fill:#407BFF;" d="M333.386,147.772c0,0-3.396,4.721-9.266,7.58c0,0-1.961-2.47-2.28-5.139
				c0,0-3.693,1.765-5.324,3.619c0,0,0.348,3.862,2.361,6.537l5.068-3.633l6.152,4.495c0,0,8.08-5.221,9.891-10.587L333.386,147.772
				z"/>
			<path style="opacity:0.4;fill:#FFFFFF;enable-background:new    ;" d="M333.386,147.772c0,0-3.396,4.721-9.266,7.58
				c0,0-1.961-2.47-2.28-5.139c0,0-3.693,1.765-5.324,3.619c0,0,0.348,3.862,2.361,6.537l5.068-3.633l6.152,4.495
				c0,0,8.08-5.221,9.891-10.587L333.386,147.772z"/>
		</g>
		<g>
			<g>
				<path style="fill:#407BFF;" d="M269.56,188.427c-6.824-0.494-5.934,5.143-4.714,9.187l5.308,11.978l10.78-0.396
					C280.934,209.196,276.385,188.921,269.56,188.427z M269.066,202.489c-1.579-2.596-6.132-10.7-1.286-12.084
					c4.846-1.385,10.582,9.396,9.198,13.549C275.594,208.108,272.196,207.635,269.066,202.489z"/>
				<path style="opacity:0.5;fill:#FFFFFF;enable-background:new    ;" d="M269.56,188.427c-6.824-0.494-5.934,5.143-4.714,9.187
					l5.308,11.978l10.78-0.396C280.934,209.196,276.385,188.921,269.56,188.427z M269.066,202.489
					c-1.579-2.596-6.132-10.7-1.286-12.084c4.846-1.385,10.582,9.396,9.198,13.549C275.594,208.108,272.196,207.635,269.066,202.489
					z"/>
			</g>
			<polygon style="fill:#407BFF;" points="267.582,208.899 270.945,196.451 287.264,200.578 283.092,221.163 			"/>
			<g>
				<polygon style="fill:#407BFF;" points="285.78,218.789 281.824,193.876 291.714,189.416 299.505,193.876 300.319,219.976 				
					"/>
				<polygon style="opacity:0.2;enable-background:new    ;" points="285.78,218.789 281.824,193.876 291.714,189.416 
					299.505,193.876 300.319,219.976 				"/>
			</g>
			<g>
				<path style="fill:#407BFF;" d="M292.901,211.372c0,0,5.44-34.022,9.396-35.11c3.956-1.088,7.615,4.154,7.615,4.154
					s-3.374,22.154-5.841,29.967C301.604,218.196,292.901,211.372,292.901,211.372z"/>
				<path style="opacity:0.8;fill:#FFFFFF;enable-background:new    ;" d="M292.901,211.372c0,0,5.44-34.022,9.396-35.11
					c3.956-1.088,7.615,4.154,7.615,4.154s-3.374,22.154-5.841,29.967C301.604,218.196,292.901,211.372,292.901,211.372z"/>
			</g>
			<g>
				<path style="fill:#407BFF;" d="M306.253,212.533c0-5.004,6.594-18.996-1.609-20.379c-8.202-1.383-14.742,13.515-23.973,13.482
					c-9.231-0.033-15.824-8.022-15.824-8.022l1.424,2.95c0,0-17.848,34.926-9.336,38.391c7.912,3.221,52.361,0,52.361,0
					C315.767,234.527,306.253,217.537,306.253,212.533z M305.264,207.364c-0.989,0.245-5.736-4.875-5.736-4.875
					c-0.396-9.278,4.648-9.909,7.121-7.238C309.121,197.921,306.253,207.119,305.264,207.364z"/>
				<path style="opacity:0.7;fill:#FFFFFF;enable-background:new    ;" d="M306.253,212.533c0-5.004,6.594-18.996-1.609-20.379
					c-8.202-1.383-14.742,13.515-23.973,13.482c-9.231-0.033-15.824-8.022-15.824-8.022l1.424,2.95c0,0-17.848,34.926-9.336,38.391
					c7.912,3.221,52.361,0,52.361,0C315.767,234.527,306.253,217.537,306.253,212.533z M305.264,207.364
					c-0.989,0.245-5.736-4.875-5.736-4.875c-0.396-9.278,4.648-9.909,7.121-7.238C309.121,197.921,306.253,207.119,305.264,207.364z
					"/>
			</g>
		</g>
		
			<rect x="330.78" y="183.383" transform="matrix(0.9943 -0.1068 0.1068 0.9943 -18.0373 36.9441)" style="opacity:0.6;fill:#FFFFFF;enable-background:new    ;" width="10.076" height="6.9"/>
		<path style="fill:#407BFF;" d="M333.702,180.218l1.034,3.314c0.133,0.425,0.558,0.688,0.998,0.617l0,0
			c0.387-0.063,0.688-0.371,0.742-0.76l0.535-3.84L333.702,180.218z"/>
		<path style="opacity:0.4;enable-background:new    ;" d="M333.702,180.218l1.034,3.314c0.133,0.425,0.558,0.688,0.998,0.617l0,0
			c0.387-0.063,0.688-0.371,0.742-0.76l0.535-3.84L333.702,180.218z"/>
		<path style="fill:#EBB376;" d="M341.066,189.659c0,0-3.716,11.176-5.32,13.599c-1.603,2.423-42.845,13.104-42.845,13.104
			s-3.461-1.766-5.637-1.576c-2.176,0.191-10.681,2.169-10.879,3.751c-0.198,1.582,4.352,8.703,5.44,9.297
			c1.088,0.593,11.967-1.058,13.154-3.891c0,0,42.132-7.567,46.088-9.157c3.956-1.589,12.459-20.381,12.459-20.381L341.066,189.659z
			"/>
		<g>
			<path style="fill:#407BFF;" d="M351.67,150.416c6.376,0.435,11.945,14.176,10.858,25.253
				c-1.088,11.077-11.275,29.967-11.275,29.967l-14.242-7.023c0,0,3.56-12.659,7.615-24.626
				C348.681,162.02,346.845,150.087,351.67,150.416z"/>
			<path style="opacity:0.4;fill:#FFFFFF;enable-background:new    ;" d="M351.67,150.416c6.376,0.435,11.945,14.176,10.858,25.253
				c-1.088,11.077-11.275,29.967-11.275,29.967l-14.242-7.023c0,0,3.56-12.659,7.615-24.626
				C348.681,162.02,346.845,150.087,351.67,150.416z"/>
		</g>
		<g>
			<polygon style="fill:#407BFF;" points="335.309,199.922 336.891,197.614 353.525,203.23 352.662,207.364 			"/>
			<polygon style="opacity:0.3;fill:#FFFFFF;enable-background:new    ;" points="335.309,199.922 336.891,197.614 353.525,203.23 
				352.662,207.364 			"/>
		</g>
	</g>
	<g>
		<g>
			<path style="fill:#407BFF;" d="M235.044,240.311h-32.835v-16.46c0-0.986,0.799-1.786,1.786-1.786h29.264
				c0.986,0,1.786,0.799,1.786,1.786V240.311z"/>
			<path style="opacity:0.3;fill:#FFFFFF;enable-background:new    ;" d="M235.04,223.85v16.46h-32.83v-16.46
				c0-0.98,0.8-1.78,1.78-1.78h29.27C234.24,222.07,235.04,222.87,235.04,223.85z"/>
			<path style="opacity:0.4;fill:#FFFFFF;enable-background:new    ;" d="M227.04,223.85v16.46h-24.83v-16.46
				c0-0.98,0.8-1.78,1.78-1.78h21.27C226.24,222.07,227.04,222.87,227.04,223.85z"/>
		</g>
		<g>
			<rect x="181.363" y="245.212" style="fill:#407BFF;" width="228.923" height="171.991"/>
			<rect x="181.363" y="245.212" style="opacity:0.3;fill:#FFFFFF;enable-background:new    ;" width="228.923" height="171.991"/>
			<rect x="181.363" y="245.212" style="opacity:0.4;fill:#FFFFFF;enable-background:new    ;" width="169.525" height="171.991"/>
			<path style="fill:#407BFF;" d="M413.59,240.44v6.83c0,0.86-0.7,1.56-1.56,1.56H180.51c-0.86,0-1.56-0.7-1.56-1.56v-6.83
				c0-0.86,0.7-1.56,1.56-1.56h231.52C412.89,238.88,413.59,239.58,413.59,240.44z"/>
			<path style="opacity:0.2;fill:#FFFFFF;enable-background:new    ;" d="M353.59,240.44v6.83c0,0.86-0.7,1.56-1.56,1.56H180.51
				c-0.86,0-1.56-0.7-1.56-1.56v-6.83c0-0.86,0.7-1.56,1.56-1.56h171.52C352.89,238.88,353.59,239.58,353.59,240.44z"/>
		</g>
	</g>
</g>
<g id="Trash_bin">
	<g>
		<g>
			<path style="fill:#407BFF;" d="M442.827,392.413c1.009-1.694-0.414-4.244-2.386-4.273c0.864-2.431,0.012-5.37-2.02-6.961
				c-0.256-0.201-0.551-0.389-0.876-0.39c-0.349-0.001-0.658,0.212-0.942,0.415c-1.858,1.335-3.717,2.67-5.575,4.005
				c-0.425,0.306-0.866,0.629-1.106,1.094c-1.139,2.208,2.968,5.036,1.279,6.858c-0.485,0.523-1.266,0.631-1.871,1.009
				c-1.327,0.829-1.487,2.651-2.105,4.088c-0.618,1.437-2.774,2.553-3.599,1.223c0.609-1.379-1.234-2.566-2.731-2.742
				c-1.477-0.173-3.06-0.257-3.888-1.661c-2.124,1.856-6.879-3.323-6.77-5.411c-1.746,0.133-2.935,1.768-3.317,3.403
				c-0.397,1.697-0.151,3.465-0.179,5.204c-0.053,3.381-1.145,6.693-1.085,10.074c0.046,2.631,1.063,5.552,3.472,6.611
				c1.159,0.51,2.469,0.51,3.736,0.502c9.143-0.059,18.286-0.117,27.429-0.176c0.658-0.004,1.345-0.015,1.929-0.32
				c1.238-0.646,1.499-2.271,1.614-3.663c0.491-5.959,0.982-11.918,1.473-17.877C444.482,393.088,443.654,392.75,442.827,392.413z"
				/>
			<path style="opacity:0.3;fill:#FFFFFF;enable-background:new    ;" d="M442.827,392.413c1.009-1.694-0.414-4.244-2.386-4.273
				c0.864-2.431,0.012-5.37-2.02-6.961c-0.256-0.201-0.551-0.389-0.876-0.39c-0.349-0.001-0.658,0.212-0.942,0.415
				c-1.858,1.335-3.717,2.67-5.575,4.005c-0.425,0.306-0.866,0.629-1.106,1.094c-1.139,2.208,2.968,5.036,1.279,6.858
				c-0.485,0.523-1.266,0.631-1.871,1.009c-1.327,0.829-1.487,2.651-2.105,4.088c-0.618,1.437-2.774,2.553-3.599,1.223
				c0.609-1.379-1.234-2.566-2.731-2.742c-1.477-0.173-3.06-0.257-3.888-1.661c-2.124,1.856-6.879-3.323-6.77-5.411
				c-1.746,0.133-2.935,1.768-3.317,3.403c-0.397,1.697-0.151,3.465-0.179,5.204c-0.053,3.381-1.145,6.693-1.085,10.074
				c0.046,2.631,1.063,5.552,3.472,6.611c1.159,0.51,2.469,0.51,3.736,0.502c9.143-0.059,18.286-0.117,27.429-0.176
				c0.658-0.004,1.345-0.015,1.929-0.32c1.238-0.646,1.499-2.271,1.614-3.663c0.491-5.959,0.982-11.918,1.473-17.877
				C444.482,393.088,443.654,392.75,442.827,392.413z"/>
		</g>
		<g>
			<g>
				<path style="fill:#407BFF;" d="M444.428,363.42h-3.08h-8.48h-3.09h-8.47h-3.09h-8.47h-3.09h-4.79l0.35,4.3l0.25,3.07l0.65,7.99
					l0.37,4.59l0.49,6.11l0.21,2.62l0.07,0.78l0.25,3.08l0.34,4.22l0.21,2.62l0.22,2.66l0.25,3.08l0.19,2.33l0.21,2.62l0.09,1.14
					h5.6h4.73h6.83h4.73h6.83h4.73h5.61l0.09-1.14l0.21-2.61l0.19-2.35l0.25-3.08l0.22-2.65l0.21-2.62l0.34-4.23l0.25-3.07
					l0.06-0.78l0.21-2.62l0.5-6.11l0.37-4.58l0.64-8l0.25-3.07l0.35-4.3H444.428z M446.988,366.24L446.988,366.24l-0.82-0.82h0.89
					L446.988,366.24z M446.778,368.85l-0.08,1.04l-3.81,3.81l-4.37-4.37l3.91-3.91h0.92L446.778,368.85z M445.678,382.47l-2.79,2.79
					l-4.37-4.37l4.37-4.36l3.02,3.02L445.678,382.47z M405.178,379.55L405.178,379.55l3.02-3.02l4.37,4.36l-4.37,4.37l-2.78-2.79
					L405.178,379.55z M441.478,375.11l-4.37,4.37l-4.37-4.37l4.37-4.37L441.478,375.11z M434.608,365.42h5l-2.5,2.5L434.608,365.42z
					 M435.688,380.89l-4.36,4.37l-4.37-4.37l4.37-4.36L435.688,380.89z M421.178,386.67l4.37-4.36l4.36,4.36l-4.36,4.37
					L421.178,386.67z M424.128,392.45l-4.37,4.37l-4.36-4.36l4.37-4.37L424.128,392.45z M431.328,388.09l4.36,4.37l-4.36,4.36
					l-4.37-4.37L431.328,388.09z M425.548,379.48l-4.37-4.37l4.37-4.37l4.36,4.37L425.548,379.48z M424.128,380.89l-4.36,4.37
					l-4.37-4.37l4.37-4.36L424.128,380.89z M413.978,379.48l-4.36-4.37l4.36-4.37l4.37,4.37L413.978,379.48z M413.978,382.31
					l4.37,4.36l-4.37,4.37l-4.36-4.37L413.978,382.31z M418.348,398.24l-4.37,4.36l-4.36-4.36l4.36-4.37L418.348,398.24z
					 M419.758,399.65l4.37,4.37l-4.36,4.37l-4.37-4.37L419.758,399.65z M421.178,398.24l4.37-4.37l4.36,4.37l-4.36,4.36
					L421.178,398.24z M431.328,399.65l4.36,4.37l-4.36,4.37l-4.37-4.37L431.328,399.65z M437.108,405.43l4.37,4.37l-2.83,2.83h-3.08
					l-2.83-2.83L437.108,405.43z M432.738,398.24l4.37-4.37l4.37,4.37l-4.37,4.36L432.738,398.24z M432.738,386.67l4.37-4.36
					l4.37,4.36l-4.37,4.37L432.738,386.67z M435.688,369.33l-4.36,4.37l-4.37-4.37l3.91-3.91h0.92L435.688,369.33z M425.548,367.92
					l-2.5-2.5h4.99L425.548,367.92z M424.128,369.33l-4.36,4.37l-4.37-4.37l3.91-3.91h0.92L424.128,369.33z M416.478,365.42
					l-2.5,2.5l-2.49-2.5H416.478z M408.658,365.42l3.91,3.91l-4.37,4.37l-3.8-3.81l-0.08-1.04l3.42-3.43H408.658z M404.918,365.42
					l-0.81,0.81v0l-0.07-0.81H404.918z M404.648,372.97l2.14,2.14l-1.82,1.82L404.648,372.97z M405.838,387.62l-0.17-2.07v0
					l1.12,1.12L405.838,387.62L405.838,387.62z M406.048,390.25l2.15-2.16l4.37,4.37l-4.37,4.36l-1.76-1.76L406.048,390.25z
					 M406.698,398.33l-0.01-0.19l0.1,0.1L406.698,398.33L406.698,398.33z M407.458,407.64l-0.55-6.7l1.29-1.29l4.37,4.37l-4.37,4.36
					L407.458,407.64L407.458,407.64z M407.858,412.63l-0.08-1l0.42-0.42l1.42,1.42H407.858z M409.618,409.8l4.36-4.37l4.37,4.37
					l-2.83,2.83h-3.08L409.618,409.8z M418.348,412.63l1.42-1.42l1.42,1.42H418.348z M424.008,412.63l-2.83-2.83l4.37-4.37
					l4.36,4.37l-2.82,2.83H424.008z M429.908,412.63l1.42-1.42l1.42,1.42H429.908z M443.228,412.63h-1.76l1.42-1.42l0.42,0.42
					L443.228,412.63z M443.638,407.64l-0.75,0.74l-4.37-4.36l4.37-4.37l1.29,1.29L443.638,407.64z M444.408,398.13l-0.02,0.2
					l-0.09-0.09L444.408,398.13L444.408,398.13z M444.658,395.06l-1.77,1.76l-4.37-4.36l4.37-4.37l2.16,2.16L444.658,395.06z
					 M445.258,387.63l-0.96-0.96l1.13-1.12L445.258,387.63z M446.448,372.96l-0.32,3.98l-1.83-1.83L446.448,372.96L446.448,372.96z"
					/>
			</g>
			<g style="opacity:0.6;enable-background:new    ;">
				<path style="fill:#FFFFFF;" d="M444.428,363.42h-3.08h-8.48h-3.09h-8.47h-3.09h-8.47h-3.09h-4.79l0.35,4.3l0.25,3.07l0.65,7.99
					l0.37,4.59l0.49,6.11l0.21,2.62l0.07,0.78l0.25,3.08l0.34,4.22l0.21,2.62l0.22,2.66l0.25,3.08l0.19,2.33l0.21,2.62l0.09,1.14
					h5.6h4.73h6.83h4.73h6.83h4.73h5.61l0.09-1.14l0.21-2.61l0.19-2.35l0.25-3.08l0.22-2.65l0.21-2.62l0.34-4.23l0.25-3.07
					l0.06-0.78l0.21-2.62l0.5-6.11l0.37-4.58l0.64-8l0.25-3.07l0.35-4.3H444.428z M446.988,366.24L446.988,366.24l-0.82-0.82h0.89
					L446.988,366.24z M446.778,368.85l-0.08,1.04l-3.81,3.81l-4.37-4.37l3.91-3.91h0.92L446.778,368.85z M445.678,382.47l-2.79,2.79
					l-4.37-4.37l4.37-4.36l3.02,3.02L445.678,382.47z M405.178,379.55L405.178,379.55l3.02-3.02l4.37,4.36l-4.37,4.37l-2.78-2.79
					L405.178,379.55z M441.478,375.11l-4.37,4.37l-4.37-4.37l4.37-4.37L441.478,375.11z M434.608,365.42h5l-2.5,2.5L434.608,365.42z
					 M435.688,380.89l-4.36,4.37l-4.37-4.37l4.37-4.36L435.688,380.89z M421.178,386.67l4.37-4.36l4.36,4.36l-4.36,4.37
					L421.178,386.67z M424.128,392.45l-4.37,4.37l-4.36-4.36l4.37-4.37L424.128,392.45z M431.328,388.09l4.36,4.37l-4.36,4.36
					l-4.37-4.37L431.328,388.09z M425.548,379.48l-4.37-4.37l4.37-4.37l4.36,4.37L425.548,379.48z M424.128,380.89l-4.36,4.37
					l-4.37-4.37l4.37-4.36L424.128,380.89z M413.978,379.48l-4.36-4.37l4.36-4.37l4.37,4.37L413.978,379.48z M413.978,382.31
					l4.37,4.36l-4.37,4.37l-4.36-4.37L413.978,382.31z M418.348,398.24l-4.37,4.36l-4.36-4.36l4.36-4.37L418.348,398.24z
					 M419.758,399.65l4.37,4.37l-4.36,4.37l-4.37-4.37L419.758,399.65z M421.178,398.24l4.37-4.37l4.36,4.37l-4.36,4.36
					L421.178,398.24z M431.328,399.65l4.36,4.37l-4.36,4.37l-4.37-4.37L431.328,399.65z M437.108,405.43l4.37,4.37l-2.83,2.83h-3.08
					l-2.83-2.83L437.108,405.43z M432.738,398.24l4.37-4.37l4.37,4.37l-4.37,4.36L432.738,398.24z M432.738,386.67l4.37-4.36
					l4.37,4.36l-4.37,4.37L432.738,386.67z M435.688,369.33l-4.36,4.37l-4.37-4.37l3.91-3.91h0.92L435.688,369.33z M425.548,367.92
					l-2.5-2.5h4.99L425.548,367.92z M424.128,369.33l-4.36,4.37l-4.37-4.37l3.91-3.91h0.92L424.128,369.33z M416.478,365.42
					l-2.5,2.5l-2.49-2.5H416.478z M408.658,365.42l3.91,3.91l-4.37,4.37l-3.8-3.81l-0.08-1.04l3.42-3.43H408.658z M404.918,365.42
					l-0.81,0.81v0l-0.07-0.81H404.918z M404.648,372.97l2.14,2.14l-1.82,1.82L404.648,372.97z M405.838,387.62l-0.17-2.07v0
					l1.12,1.12L405.838,387.62L405.838,387.62z M406.048,390.25l2.15-2.16l4.37,4.37l-4.37,4.36l-1.76-1.76L406.048,390.25z
					 M406.698,398.33l-0.01-0.19l0.1,0.1L406.698,398.33L406.698,398.33z M407.458,407.64l-0.55-6.7l1.29-1.29l4.37,4.37l-4.37,4.36
					L407.458,407.64L407.458,407.64z M407.858,412.63l-0.08-1l0.42-0.42l1.42,1.42H407.858z M409.618,409.8l4.36-4.37l4.37,4.37
					l-2.83,2.83h-3.08L409.618,409.8z M418.348,412.63l1.42-1.42l1.42,1.42H418.348z M424.008,412.63l-2.83-2.83l4.37-4.37
					l4.36,4.37l-2.82,2.83H424.008z M429.908,412.63l1.42-1.42l1.42,1.42H429.908z M443.228,412.63h-1.76l1.42-1.42l0.42,0.42
					L443.228,412.63z M443.638,407.64l-0.75,0.74l-4.37-4.36l4.37-4.37l1.29,1.29L443.638,407.64z M444.408,398.13l-0.02,0.2
					l-0.09-0.09L444.408,398.13L444.408,398.13z M444.658,395.06l-1.77,1.76l-4.37-4.36l4.37-4.37l2.16,2.16L444.658,395.06z
					 M445.258,387.63l-0.96-0.96l1.13-1.12L445.258,387.63z M446.448,372.96l-0.32,3.98l-1.83-1.83L446.448,372.96L446.448,372.96z"
					/>
			</g>
		</g>
		<path style="fill:#407BFF;" d="M400.786,367.204h49.516c0.908,0,1.643-0.736,1.643-1.643v-2.281c0-0.908-0.736-1.643-1.643-1.643
			h-49.516c-0.908,0-1.643,0.736-1.643,1.643v2.281C399.143,366.468,399.879,367.204,400.786,367.204z"/>
		<path style="fill:#407BFF;" d="M446.495,417.204h-41.901c-0.908,0-1.643-0.736-1.643-1.643v-2.281
			c0-0.908,0.736-1.643,1.643-1.643h41.901c0.908,0,1.643,0.736,1.643,1.643v2.281C448.138,416.468,447.403,417.204,446.495,417.204
			z"/>
	</g>
</g>
<g id="Character_1">
	<g>
		<g>
			<path style="fill:#263238;" d="M177.662,210.133c3.448,1.074,3.978,21.131,3.978,21.131h-1.989c0,0,1.047-21.255-4.153-20.59
				L177.662,210.133z"/>
			<path style="opacity:0.2;enable-background:new    ;" d="M177.662,210.133c3.448,1.074,3.978,21.131,3.978,21.131h-1.989
				c0,0,1.047-21.255-4.153-20.59L177.662,210.133z"/>
		</g>
		<polygon style="fill:#E4897B;" points="182.008,399.819 175.7,400.933 173.113,392.333 170.753,384.439 178.026,381.899 
			180.138,391.386 		"/>
		<polygon style="opacity:0.2;enable-background:new    ;" points="180.172,391.581 173.144,392.506 170.768,384.526 
			178.033,381.942 		"/>
		<polygon style="fill:#E4897B;" points="139.898,402.727 133.493,402.727 132.441,393.705 131.489,385.471 139.093,384.208 
			139.523,394.007 		"/>
		<polygon style="opacity:0.2;enable-background:new    ;" points="139.523,394.09 132.441,393.779 131.489,385.508 
			139.093,384.227 		"/>
		<path style="fill:#263238;" d="M148.579,415.414c-1.017-0.823-2.176-1.454-3.42-1.86l0,0c0,0-3.72-3.69-5.51-14.8l-4.87-1.27
			c-1.693-0.411-3.463,0.281-4.43,1.73c-0.135,0.196-0.24,0.412-0.31,0.64c-0.251,1.191-0.424,2.397-0.52,3.61
			c-0.49,3.76-0.07,12.2-0.07,12.2h0.88l0.35-7.66c0.13-2.6,2.12,0.45,2.69,3.25c0.57,2.8,1.78,5.78,7.48,5.92
			C147.499,417.305,150.259,417.044,148.579,415.414z"/>
		<path style="fill:#263238;" d="M191.079,414.664c-1.017-0.823-2.176-1.454-3.42-1.86l0,0c0,0-3.72-3.69-5.51-14.8l-4.87-1.27
			c-1.693-0.411-3.463,0.281-4.43,1.73c-0.135,0.196-0.24,0.412-0.31,0.64c-0.251,1.191-0.424,2.397-0.52,3.61
			c-0.49,3.76-0.07,12.2-0.07,12.2h0.88l0.35-7.66c0.13-2.6,2.12,0.45,2.69,3.25c0.57,2.8,1.78,5.78,7.48,5.92
			C189.999,416.555,192.759,416.294,191.079,414.664z"/>
		<g>
			<g>
				<path style="fill:#407BFF;" d="M180.766,386.576l-10.369,1.828c-10.464-26.07-17.907-47.831-23.163-65.889
					c-2.831-9.744-5.193-18.409-6.888-26.098l0.318,28.38v63.93h-10.219c-25.615-122-7.462-149.804-7.462-149.804l30.643-5.102
					c1.165,4.574,2.046,12.056,2.566,17.217l1.382,10.166l11.979,61.872L180.766,386.576z"/>
			</g>
			<g style="opacity:0.4;enable-background:new    ;">
				<path style="fill:#FFFFFF;" d="M180.766,386.576l-10.369,1.828c-10.464-26.07-17.907-47.831-23.163-65.889
					c-2.831-9.744-5.193-18.409-6.888-26.098l0.318,28.38v63.93h-10.219c-25.615-122-7.462-149.804-7.462-149.804l30.643-5.102
					c1.165,4.574,2.046,12.056,2.566,17.217l1.382,10.166l11.979,61.872L180.766,386.576z"/>
			</g>
		</g>
		<path style="fill:#EEC1BB;" d="M189.91,203.699l10.345-10.221c0,0,0.358-2.738,1.358-3.501c1.001-0.763,8.098-3.337,8.965-2.765
			c0.867,0.572,2.075,6.308,0.861,7.356c-1.214,1.049-7.668,2.393-8.329,2.28l-11.191,13.285L189.91,203.699z"/>
		<g>
			<path style="fill:#263238;" d="M152.869,185.074c4.462,2.366,20.295,24.501,22.628,25.6c2.333,1.099,20.162-13.36,20.162-13.36
				l3.005,5.126c0,0-14.628,20.667-22.898,19.667c-8.269-1-24.102-18.5-24.102-18.5L152.869,185.074z"/>
			<path style="opacity:0.4;fill:#FFFFFF;enable-background:new    ;" d="M152.869,185.074c4.462,2.366,20.295,24.501,22.628,25.6
				c2.333,1.099,20.162-13.36,20.162-13.36l3.005,5.126c0,0-14.628,20.667-22.898,19.667c-8.269-1-24.102-18.5-24.102-18.5
				L152.869,185.074z"/>
		</g>
		<polygon style="fill:#407BFF;" points="194.679,197.856 195.914,196.689 199.164,202.189 197.997,204.439 		"/>
		<path style="opacity:0.2;enable-background:new    ;" d="M158.024,210.069c-3.7-3.53-6.36-6.46-6.36-6.46l0.28-4.4l1.39-4.27
			C153.334,194.939,159.574,200.689,158.024,210.069z"/>
		<path style="opacity:0.2;enable-background:new    ;" d="M147.234,322.514c-2.831-9.744-5.038-18.409-6.733-26.098
			c0,0,0.17-14.943,1.979-27.215C142.481,269.201,146.969,304.305,147.234,322.514z"/>
		<g>
			<path style="fill:#263238;" d="M154.365,231.929c1.25-22.017,0.691-34.119,0.123-40.17c-0.625-6.449-1.619-6.686-1.619-6.686
				s-6.989-0.682-13.068-0.634c-4.706,0.161-9.403,0.653-14.034,1.477c-4.394,0.729-8.721,1.78-12.973,3.134
				c0.71,2.027,1.354,3.949,1.951,5.758c0.795,2.386,1.506,4.602,2.149,6.666c1.203,3.864,2.14,7.206,2.888,10.199
				c2.339,9.261,2.831,15.189,3.324,22.954c0,0-7.692,20.099-9.192,34.849l25.5,2.75l3.5-14.75l3.5,15.25l14.25-5L154.365,231.929z"
				/>
			<path style="opacity:0.4;fill:#FFFFFF;enable-background:new    ;" d="M154.365,231.929c1.25-22.017,0.691-34.119,0.123-40.17
				c-0.625-6.449-1.619-6.686-1.619-6.686s-6.989-0.682-13.068-0.634c-4.706,0.161-9.403,0.653-14.034,1.477
				c-4.394,0.729-8.721,1.78-12.973,3.134c0.71,2.027,1.354,3.949,1.951,5.758c0.795,2.386,1.506,4.602,2.149,6.666
				c1.203,3.864,2.14,7.206,2.888,10.199c2.339,9.261,2.831,15.189,3.324,22.954c0,0-7.692,20.099-9.192,34.849l25.5,2.75l3.5-14.75
				l3.5,15.25l14.25-5L154.365,231.929z"/>
		</g>
		<g>
			<path style="fill:#407BFF;" d="M128.03,183.284c0,0,3.673-2.934,10.234-0.593l0.89,3.342c0,0-5.637,2.131-8.472,1.57
				C127.846,187.042,128.03,183.284,128.03,183.284z"/>
			<path style="opacity:0.2;enable-background:new    ;" d="M128.03,183.284c0,0,3.673-2.934,10.234-0.593l0.89,3.342
				c0,0-5.637,2.131-8.472,1.57C127.846,187.042,128.03,183.284,128.03,183.284z"/>
		</g>
		<path style="opacity:0.2;enable-background:new    ;" d="M121.014,217.059c-0.34-1.68-0.74-3.47-1.23-5.39
			c-0.31-1.22-0.65-2.5-1.03-3.86c0.97-3.41,1.972-0.745,1.972-0.745S121.726,211.189,121.014,217.059z"/>
		<path style="fill:#EEC1BB;" d="M139.446,185.78c-0.276-0.151-0.604-0.284-0.951-0.408c-0.721-0.569-1.596-1.941-1.555-5.275
			c0.015-1.086,0.118-2.372,0.362-3.904l-9.272-1.731c0,0,3.161,6.239,0.523,10.873c-0.907,0.404-1.448,0.974-1.35,1.729
			c0.694,5.359,12.211,10.537,12.211,10.537S145.039,188.852,139.446,185.78z"/>
		<path style="opacity:0.2;enable-background:new    ;" d="M137.302,176.194c-0.244,1.532-0.347,2.818-0.362,3.904
			c-6.263,0-8.91-5.635-8.91-5.635L137.302,176.194z"/>
		<g>
			<path style="fill:#263238;" d="M133.164,145.602c0,0,10.875-1.375,12.875,7.375s-4.75,13.625-4.75,13.625L133.164,145.602z"/>
			<path style="fill:#EEC1BB;" d="M132.176,150.268c8.06-0.442,10.891,3.732,11.936,12.005c1.307,10.339-0.591,17.84-10.79,16.175
				C119.471,176.187,118.791,151.001,132.176,150.268z"/>
			<path style="fill:#D4827D;" d="M138.878,162.108c0,0,1.232,2.044,2.528,3.214c0,0-0.63,1.134-2.075,1.028L138.878,162.108z"/>
			<g>
				<path style="fill:#263238;" d="M133.908,161.719c0.052,0.661-0.264,1.225-0.704,1.26c-0.441,0.035-0.84-0.474-0.892-1.135
					c-0.052-0.661,0.263-1.225,0.704-1.26C133.457,160.55,133.856,161.058,133.908,161.719z"/>
				<path style="fill:#263238;" d="M132.835,160.631l1.394-0.677C134.229,159.954,133.608,161.22,132.835,160.631z"/>
			</g>
			<g>
				<path style="fill:#263238;" d="M142.118,160.938c0.052,0.661-0.264,1.225-0.704,1.26c-0.441,0.034-0.84-0.474-0.892-1.135
					c-0.052-0.661,0.264-1.225,0.704-1.26C141.667,159.769,142.066,160.277,142.118,160.938z"/>
				<path style="fill:#263238;" d="M141.044,159.85l1.394-0.676C142.438,159.173,141.817,160.439,141.044,159.85z"/>
			</g>
			
				<path style="fill:none;stroke:#263238;stroke-width:0.6862;stroke-linecap:round;stroke-linejoin:round;stroke-miterlimit:10;" d="
				M133.522,156.158c0,0-2.281-0.17-3.429,1.41"/>
			
				<path style="fill:none;stroke:#263238;stroke-width:0.6862;stroke-linecap:round;stroke-linejoin:round;stroke-miterlimit:10;" d="
				M139.362,155.496c0,0,1.395-0.605,3.249,0.486"/>
			<path style="fill:#263238;" d="M124.112,164.335c0,0,3.406-6.829,2.555-11.91c0,0,15.615-7.4,17.291,8.769
				c0,0,0.772-14.481-13.101-14.043c-13.851,0.438-12.704,20.705-5.217,26.353C125.639,173.504,122.007,168.604,124.112,164.335z"/>
			<path style="fill:#263238;" d="M134.539,144.977c0,0,6.625-1.625,8.5,0.125s-11.5,14.125-18.5,15.375c0,0-2.375,7.75-0.5,11.375
				c0,0-7.875-2.75-8.25-14.75S128.039,140.602,134.539,144.977z"/>
			<path style="fill:#EEC1BB;" d="M125.521,165.964c-0.125-1.295-1.584-3.418-3.983-3.022c-2.483,0.409-3.392,5.602,2.888,6.495
				C125.327,169.565,125.782,168.666,125.521,165.964z"/>
			<path style="fill:#263238;" d="M122.039,149.727c0,0-2.75-7-10.125-6.5s-8.5,12-4.625,20.5s1.25,11.25,1.25,11.25
				s4.125-0.5,4.125-8.125c0,0,0.375,2.5,0.25,4.875c0,0,2.75-3.875,0.125-11.25s5.75-4,5.75-4L122.039,149.727z"/>
			
				<path style="fill:none;stroke:#263238;stroke-width:0.6862;stroke-linecap:round;stroke-linejoin:round;stroke-miterlimit:10;" d="
				M142.414,145.727c0,0-3.5,11.25-12.875,14.625"/>
			
				<path style="fill:none;stroke:#263238;stroke-width:0.6862;stroke-linecap:round;stroke-linejoin:round;stroke-miterlimit:10;" d="
				M133.039,169.227c0,0,1.875,2,4.625,1.875"/>
		</g>
		<path style="fill:#407BFF;" d="M128.03,183.284c0,0,1.662,3.363,7.321,5.767l2.313,3.728v-4.253c0,0,1.094-3.066,0.6-5.835
			l1.878,3.553c0,0,1.675,0.206,2.272,2.382c0.597,2.176-2.627,10.007-2.627,10.007s-10.288-3.692-12.595-8.326
			c-1.715-3.445,0.343-4.274,0.343-4.274L128.03,183.284z"/>
		<path style="fill:#263238;" d="M141.429,201.482c0,0.41-0.332,0.742-0.742,0.742c-0.41,0-0.742-0.332-0.742-0.742
			c0-0.41,0.332-0.742,0.742-0.742C141.096,200.74,141.429,201.072,141.429,201.482z"/>
		<path style="fill:#263238;" d="M143.229,213.053c0,0.41-0.332,0.742-0.742,0.742s-0.742-0.332-0.742-0.742
			c0-0.41,0.332-0.742,0.742-0.742S143.229,212.643,143.229,213.053z"/>
		<path style="fill:#263238;" d="M143.971,227.068c0,0.41-0.332,0.742-0.742,0.742c-0.41,0-0.742-0.332-0.742-0.742
			c0-0.41,0.332-0.742,0.742-0.742C143.639,226.326,143.971,226.658,143.971,227.068z"/>
		<path style="fill:#263238;" d="M144.609,241.76c0,0.41-0.332,0.742-0.742,0.742s-0.742-0.332-0.742-0.742
			c0-0.41,0.332-0.742,0.742-0.742S144.609,241.35,144.609,241.76z"/>
		<g>
			<g>
				<path style="fill:#407BFF;" d="M202.701,191.96c0,0,6.363-3.637,15.197-3.177l5.574,5.861c0,0-4.756-1.112-15.482,1.324
					L202.701,191.96z"/>
				<path style="opacity:0.4;enable-background:new    ;" d="M202.701,191.96c0,0,6.363-3.637,15.197-3.177l5.574,5.861
					c0,0-4.756-1.112-15.482,1.324L202.701,191.96z"/>
			</g>
			<g>
				<path style="fill:#407BFF;" d="M202.644,191.548c0,0,6.161-3.97,15.007-3.98l5.877,5.557c0,0-4.808-0.858-15.39,2.145
					L202.644,191.548z"/>
				<path style="opacity:0.2;enable-background:new    ;" d="M202.644,191.548c0,0,6.161-3.97,15.007-3.98l5.877,5.557
					c0,0-4.808-0.858-15.39,2.145L202.644,191.548z"/>
			</g>
			<g>
				<path style="fill:#407BFF;" d="M203.073,190.779l5.385,4.49c0,0,7.428-4.377,17.151-2.695l-6.765-5.957
					C218.844,186.617,209.003,185.483,203.073,190.779z"/>
				<path style="opacity:0.2;enable-background:new    ;" d="M204.437,190.892l3.785,3.336c0,0,7.712-4.116,15.329-2.602
					l-5.015-4.542C218.536,187.085,209.972,185.995,204.437,190.892z"/>
				<path style="fill:#407BFF;" d="M215.049,189.417c0,0.815-0.879,1.476-1.963,1.476c-1.084,0-1.963-0.661-1.963-1.476
					c0-0.815,0.879-1.476,1.963-1.476C214.17,187.941,215.049,188.602,215.049,189.417z"/>
			</g>
		</g>
		<path style="fill:#263238;" d="M164.89,253.273c0.368-5.572,3.824-22.009,3.824-22.009s3.158-2.107,4.757-2.682
			c4.21-1.513,7.892-1.513,7.892-1.513s1.572,20.732,0,23.007C179.791,252.35,164.455,259.857,164.89,253.273z"/>
		<path style="fill:#263238;" d="M168.714,231.264c0,0,2.466-22.073,8.947-21.131c0,0-5.123,1.075-6.969,21.844L168.714,231.264z"/>
		<g>
			<g>
				<path style="fill:#407BFF;" d="M145.84,220.796c1.149-0.243,4.132-7.756,3.749-8.679c-0.384-0.924-22.562,2.182-22.562,2.182
					l1.461,8.102L145.84,220.796z"/>
				<path style="opacity:0.2;enable-background:new    ;" d="M145.84,220.796c1.149-0.243,4.132-7.756,3.749-8.679
					c-0.384-0.924-22.562,2.182-22.562,2.182l1.461,8.102L145.84,220.796z"/>
			</g>
			<path style="fill:#407BFF;" d="M117.845,214.445c0,0,23.695-3.362,24.759-3.01c1.064,0.352,3.236,9.36,3.236,9.36
				s-20.528,3.251-22.321,2.733S116.982,215.694,117.845,214.445z"/>
		</g>
		<path style="fill:#EEC1BB;" d="M109.792,230.318l12.303-7.754c0,0,0.939-2.597,2.08-3.126c1.141-0.529,8.627-1.515,9.351-0.77
			c0.724,0.745,0.669,6.607-0.743,7.369c-1.411,0.763-8.003,0.686-8.624,0.433l-13.789,10.564L109.792,230.318z"/>
		<g>
			<path style="fill:#263238;" d="M112.793,189.051c0,0,8.037,11.676,6.87,21.676l-10.667,17.667l7.167-3.667l3.25,6.125
				c0,0-8.25,12.708-18.75,9.708S112.793,189.051,112.793,189.051z"/>
			<path style="opacity:0.4;fill:#FFFFFF;enable-background:new    ;" d="M112.793,189.051c0,0,8.037,11.676,6.87,21.676
				l-10.667,17.667l7.167-3.667l3.25,6.125c0,0-8.25,12.708-18.75,9.708S112.793,189.051,112.793,189.051z"/>
		</g>
		<polygon style="fill:#407BFF;" points="115.414,224.393 119.497,231.977 120.414,229.81 117.164,223.643 		"/>
	</g>
</g>
</svg>
